<svg width="99" height="34" viewBox="0 0 99 34" fill="none" xmlns="http://www.w3.org/2000/svg">
<g clip-path="url(#clip0_23_394)">
<path d="M91.1163 -0.000133641H7.88819C7.58482 -0.000133641 7.28508 -0.000133641 6.98251 0.00156636C6.72922 0.00326636 6.47796 0.00820486 6.22224 0.0123614C5.66671 0.0190779 5.11249 0.0692912 4.56438 0.162565C4.01705 0.257869 3.48687 0.437545 2.99176 0.695515C2.49725 0.955667 2.04541 1.29371 1.65262 1.69738C1.25777 2.09991 0.928632 2.56518 0.677861 3.0753C0.426399 3.58441 0.252034 4.12996 0.160789 4.69312C0.0686763 5.25557 0.0191097 5.82451 0.0125338 6.39482C0.00485635 6.65543 0.00404557 6.91691 0 7.17756V26.8247C0.00404557 27.0886 0.00485635 27.3443 0.0125338 27.6083C0.0191117 28.1786 0.0686783 28.7475 0.160789 29.3099C0.251782 29.8734 0.426157 30.4193 0.677861 30.9286C0.928518 31.437 1.2577 31.9004 1.65262 32.3007C2.04392 32.7062 2.49606 33.0444 2.99176 33.3026C3.48686 33.5613 4.01699 33.742 4.56438 33.8388C5.11258 33.9313 5.66675 33.9816 6.22224 33.9891C6.47796 33.9949 6.72922 33.9982 6.98251 33.9982C7.28507 33.9999 7.58483 33.9999 7.88819 33.9999H91.1163C91.4136 33.9999 91.7157 33.9999 92.0131 33.9982C92.2652 33.9982 92.5237 33.9949 92.7758 33.9891C93.3302 33.982 93.8833 33.9317 94.4304 33.8388C94.9796 33.7413 95.5116 33.5606 96.0091 33.3026C96.5043 33.0443 96.9561 32.706 97.347 32.3007C97.7409 31.8989 98.0708 31.4358 98.3246 30.9286C98.5744 30.4189 98.7471 29.8731 98.8368 29.3099C98.929 28.7474 98.9803 28.1786 98.9903 27.6083C98.9935 27.3443 98.9935 27.0886 98.9935 26.8247C99 26.5159 99 26.2088 99 25.8949V8.10558C99 7.7943 99 7.48551 98.9935 7.17756C98.9935 6.91691 98.9935 6.65543 98.9903 6.39479C98.9804 5.82443 98.929 5.25562 98.8368 4.69309C98.7469 4.13026 98.5742 3.58474 98.3246 3.07527C97.8139 2.05278 97.0041 1.22049 96.0091 0.695438C95.5116 0.438099 94.9795 0.258471 94.4304 0.162488C93.8834 0.0688037 93.3303 0.018573 92.7758 0.0122424C92.5237 0.00809436 92.2652 0.00311336 92.0131 0.00145586C91.7157 -0.000244141 91.4136 -0.000244141 91.1163 -0.000244141V-0.000133641Z" fill="#A6A6A6"/>
<path d="M6.98655 33.2561C6.73448 33.2561 6.4885 33.2528 6.23841 33.2471C5.72033 33.2401 5.20346 33.1938 4.69204 33.1084C4.21517 33.024 3.75321 32.8671 3.3214 32.6427C2.89354 32.4202 2.50331 32.1284 2.16564 31.7786C1.82308 31.4329 1.53788 31.0319 1.32135 30.5916C1.10244 30.1484 0.950932 29.6733 0.87212 29.183C0.787009 28.656 0.740961 28.1233 0.734371 27.5892C0.729126 27.4099 0.72226 26.8131 0.72226 26.8131V7.17759C0.72226 7.17759 0.729573 6.58989 0.734413 6.41723C0.740722 5.88401 0.786502 5.35206 0.871358 4.82597C0.950316 4.33426 1.10194 3.85784 1.32097 3.41319C1.53671 2.97315 1.82032 2.57188 2.16081 2.22493C2.50093 1.87468 2.89241 1.58142 3.32099 1.35583C3.75181 1.13218 4.2129 0.976325 4.68881 0.893482C5.20191 0.807263 5.72057 0.760649 6.24045 0.754031L6.98695 0.743652H92.009L92.7644 0.754447C93.2796 0.760737 93.7935 0.806935 94.3019 0.892649C94.7827 0.976531 95.2486 1.13348 95.6843 1.35832C96.5429 1.81294 97.2415 2.53219 97.6823 3.41526C97.8978 3.85684 98.0471 4.32938 98.125 4.81684C98.2109 5.34724 98.259 5.88338 98.2688 6.42097C98.2712 6.66169 98.2712 6.92026 98.2712 7.17759C98.2778 7.49634 98.2778 7.79973 98.2778 8.10561V25.895C98.2778 26.2038 98.2778 26.5051 98.2712 26.8089C98.2712 27.0853 98.2712 27.3385 98.268 27.5991C98.2583 28.1271 98.2111 28.6537 98.1266 29.1746C98.0494 29.6685 97.8987 30.1473 97.6799 30.5941C97.4618 31.0297 97.1782 31.4272 96.8396 31.772C96.5017 32.1237 96.1107 32.4172 95.6819 32.6411C95.2474 32.8672 94.7822 33.0247 94.3019 33.1084C93.7906 33.1942 93.2736 33.2406 92.7555 33.2471C92.5132 33.2528 92.2595 33.2561 92.0131 33.2561L91.1163 33.2579L6.98655 33.2561Z" fill="black"/>
<path d="M20.4917 17.2555C20.5006 16.546 20.684 15.8504 21.0249 15.2333C21.3658 14.6163 21.853 14.0978 22.4413 13.7262C22.0676 13.1778 21.5745 12.7265 21.0014 12.4082C20.4282 12.0898 19.7906 11.9131 19.1394 11.8922C17.7501 11.7424 16.4033 12.7463 15.6953 12.7463C14.9737 12.7463 13.8837 11.9071 12.71 11.9319C11.9507 11.9571 11.2108 12.1839 10.5623 12.5903C9.91381 12.9966 9.3788 13.5686 9.00943 14.2506C7.40941 17.0967 8.60288 21.2796 10.1356 23.5802C10.9024 24.7068 11.7986 25.9652 12.9713 25.9205C14.1188 25.8716 14.5474 25.1687 15.9326 25.1687C17.3049 25.1687 17.707 25.9205 18.9035 25.8922C20.1349 25.8716 20.9107 24.7606 21.6506 23.6234C22.2016 22.8207 22.6256 21.9335 22.9068 20.9948C22.1914 20.6839 21.5809 20.1635 21.1515 19.4986C20.722 18.8336 20.4925 18.0535 20.4917 17.2555Z" fill="white"/>
<path d="M18.2318 10.3791C18.9032 9.55106 19.2339 8.48671 19.1538 7.41211C18.1281 7.5228 17.1806 8.02647 16.5001 8.82278C16.1674 9.21179 15.9126 9.66436 15.7503 10.1546C15.5879 10.6449 15.5212 11.1632 15.5539 11.68C16.067 11.6854 16.5745 11.5711 17.0384 11.3458C17.5022 11.1205 17.9103 10.79 18.2318 10.3791Z" fill="white"/>
<path d="M34.9973 23.0685H31.0813L30.1409 25.9215H28.4822L32.1914 15.3662H33.9147L37.6239 25.9215H35.9369L34.9973 23.0685ZM31.4869 21.752H34.591L33.0608 17.1218H33.018L31.4869 21.752Z" fill="white"/>
<path d="M45.6345 22.0742C45.6345 24.4657 44.3887 26.0022 42.5086 26.0022C42.0324 26.0278 41.5587 25.915 41.1419 25.6769C40.7251 25.4388 40.382 25.0849 40.1519 24.6558H40.1163V28.4675H38.5788V18.226H40.0671V19.506H40.0953C40.3361 19.0789 40.685 18.7268 41.1049 18.4872C41.5249 18.2477 42.0002 18.1296 42.4803 18.1455C44.3814 18.1455 45.6345 19.6894 45.6345 22.0742ZM44.0542 22.0742C44.0542 20.5162 43.2705 19.4919 42.0748 19.4919C40.9 19.4919 40.1099 20.5378 40.1099 22.0742C40.1099 23.6248 40.9 24.6632 42.0748 24.6632C43.2705 24.6632 44.0542 23.6464 44.0542 22.0742Z" fill="white"/>
<path d="M53.8786 22.0742C53.8786 24.4657 52.6327 26.0021 50.7527 26.0021C50.2764 26.0277 49.8028 25.915 49.386 25.6769C48.9692 25.4388 48.6261 25.0849 48.396 24.6557H48.3604V28.4675H46.8229V18.226H48.3111V19.506H48.3394C48.5801 19.0789 48.929 18.7268 49.349 18.4872C49.7689 18.2477 50.2443 18.1296 50.7244 18.1455C52.6255 18.1455 53.8786 19.6894 53.8786 22.0742ZM52.2982 22.0742C52.2982 20.5162 51.5146 19.4918 50.3188 19.4918C49.1441 19.4918 48.354 20.5377 48.354 22.0742C48.354 23.6248 49.1441 24.6632 50.3188 24.6632C51.5146 24.6632 52.2983 23.6464 52.2983 22.0742H52.2982Z" fill="white"/>
<path d="M59.3272 22.9805C59.4411 24.0272 60.4308 24.7145 61.7833 24.7145C63.0792 24.7145 64.0116 24.0272 64.0116 23.0834C64.0116 22.2641 63.4492 21.7736 62.1178 21.4374L60.7863 21.1078C58.8998 20.6397 58.024 19.7332 58.024 18.2623C58.024 16.4411 59.5688 15.1902 61.7623 15.1902C63.9332 15.1902 65.4214 16.4411 65.4715 18.2623H63.9194C63.8265 17.2089 62.979 16.5731 61.7405 16.5731C60.5019 16.5731 59.6544 17.2164 59.6544 18.1527C59.6544 18.899 60.1957 19.3381 61.5199 19.6742L62.6518 19.9598C64.7597 20.4719 65.6355 21.3419 65.6355 22.8858C65.6355 24.8606 64.1045 26.0974 61.6694 26.0974C59.391 26.0974 57.8527 24.8896 57.7533 22.9804L59.3272 22.9805Z" fill="white"/>
<path d="M68.9536 16.4045V18.2257H70.378V19.4767H68.9536V23.7192C68.9536 24.3783 69.2389 24.6854 69.865 24.6854C70.0341 24.6824 70.2029 24.6702 70.3708 24.6488V25.8923C70.0892 25.9463 69.8031 25.9708 69.5168 25.9654C68.0003 25.9654 67.4089 25.3801 67.4089 23.8877V19.4767H66.3198V18.2257H67.4089V16.4045H68.9536Z" fill="white"/>
<path d="M71.203 22.0742C71.203 19.6529 72.591 18.1313 74.7554 18.1313C76.9271 18.1313 78.3087 19.6528 78.3087 22.0742C78.3087 24.5022 76.9344 26.0171 74.7554 26.0171C72.5772 26.0171 71.203 24.5022 71.203 22.0742ZM76.7421 22.0742C76.7421 20.4132 76.0012 19.4329 74.7554 19.4329C73.5096 19.4329 72.7695 20.4207 72.7695 22.0742C72.7695 23.7418 73.5096 24.7147 74.7554 24.7147C76.0012 24.7147 76.7421 23.7418 76.7421 22.0742H76.7421Z" fill="white"/>
<path d="M79.5762 18.2259H81.0426V19.5358H81.0782C81.1774 19.1267 81.4107 18.7651 81.7388 18.5119C82.0669 18.2587 82.4698 18.1293 82.8799 18.1454C83.0571 18.1447 83.2338 18.1645 83.4067 18.2043V19.6819C83.183 19.6116 82.9496 19.5794 82.7158 19.5864C82.4925 19.5771 82.2698 19.6176 82.0631 19.705C81.8564 19.7925 81.6706 19.9248 81.5184 20.093C81.3662 20.2612 81.2512 20.4613 81.1814 20.6795C81.1115 20.8976 81.0884 21.1288 81.1137 21.357V25.9216H79.5762L79.5762 18.2259Z" fill="white"/>
<path d="M90.4954 23.6613C90.2885 25.0583 88.9644 26.0171 87.2701 26.0171C85.0912 26.0171 83.7387 24.5171 83.7387 22.1107C83.7387 19.6969 85.0984 18.1313 87.2055 18.1313C89.2778 18.1313 90.581 19.5939 90.581 21.9273V22.4685H85.2907V22.564C85.2663 22.8472 85.3008 23.1325 85.392 23.401C85.4831 23.6694 85.6288 23.9149 85.8194 24.1211C86.01 24.3272 86.2411 24.4894 86.4973 24.5967C86.7536 24.7041 87.0291 24.7542 87.3057 24.7437C87.669 24.7787 88.0336 24.6923 88.3453 24.4972C88.6569 24.3022 88.899 24.009 89.0355 23.6613L90.4954 23.6613ZM85.298 21.3645H89.0427C89.0565 21.1098 89.019 20.855 88.9323 20.616C88.8457 20.3769 88.712 20.1589 88.5395 19.9755C88.367 19.7921 88.1594 19.6473 87.9299 19.5502C87.7003 19.4531 87.4537 19.4058 87.2055 19.4113C86.9551 19.4098 86.7069 19.4592 86.4753 19.5567C86.2436 19.6543 86.033 19.798 85.8556 19.9796C85.6783 20.1612 85.5377 20.377 85.442 20.6147C85.3463 20.8524 85.2973 21.1073 85.298 21.3645V21.3645Z" fill="white"/>
<path d="M31.2942 7.42128C31.6166 7.39752 31.94 7.44755 32.2412 7.56777C32.5425 7.68798 32.814 7.87539 33.0362 8.11647C33.2584 8.35755 33.4258 8.6463 33.5262 8.96188C33.6266 9.27746 33.6577 9.61201 33.617 9.9414C33.617 11.5617 32.7647 12.4931 31.2942 12.4931H29.5111V7.42128H31.2942ZM30.2778 11.7758H31.2086C31.4389 11.79 31.6694 11.7512 31.8833 11.6623C32.0972 11.5733 32.2891 11.4365 32.445 11.2618C32.601 11.0871 32.717 10.8788 32.7848 10.6522C32.8525 10.4256 32.8702 10.1863 32.8365 9.95173C32.8677 9.71812 32.8483 9.48032 32.7795 9.25535C32.7107 9.03039 32.5944 8.82384 32.4388 8.6505C32.2832 8.47716 32.0922 8.34132 31.8795 8.25272C31.6669 8.16412 31.4377 8.12495 31.2086 8.13801H30.2778V11.7758Z" fill="white"/>
<path d="M34.4831 10.5777C34.4597 10.3262 34.4877 10.0724 34.5653 9.83265C34.643 9.59289 34.7685 9.37245 34.9339 9.18546C35.0993 8.99848 35.301 8.84908 35.5259 8.74684C35.7508 8.64461 35.994 8.5918 36.2399 8.5918C36.4859 8.5918 36.7291 8.64461 36.954 8.74684C37.1789 8.84908 37.3805 8.99848 37.546 9.18546C37.7114 9.37245 37.8369 9.59289 37.9146 9.83265C37.9922 10.0724 38.0202 10.3262 37.9968 10.5777C38.0206 10.8295 37.993 11.0836 37.9155 11.3238C37.8381 11.5639 37.7126 11.7848 37.5472 11.9721C37.3817 12.1595 37.1799 12.3092 36.9548 12.4117C36.7297 12.5141 36.4862 12.567 36.2399 12.567C35.9937 12.567 35.7502 12.5141 35.5251 12.4117C35.2999 12.3092 35.0982 12.1595 34.9327 11.9721C34.7672 11.7848 34.6418 11.5639 34.5643 11.3238C34.4869 11.0836 34.4592 10.8295 34.4831 10.5777ZM37.2406 10.5777C37.2406 9.74806 36.8778 9.26288 36.2412 9.26288C35.6021 9.26288 35.2426 9.74806 35.2426 10.5777C35.2426 11.414 35.6021 11.8955 36.2412 11.8955C36.8778 11.8955 37.2406 11.4107 37.2406 10.5777H37.2406Z" fill="white"/>
<path d="M42.6674 12.493H41.9047L41.1348 9.67407H41.0766L40.3099 12.493H39.5545L38.5276 8.66553H39.2733L39.9407 11.5861H39.9956L40.7615 8.66553H41.4668L42.2327 11.5861H42.2909L42.955 8.66553H43.6902L42.6674 12.493Z" fill="white"/>
<path d="M44.5539 8.66554H45.2616V9.27357H45.3166C45.4098 9.05519 45.567 8.87212 45.7663 8.74989C45.9655 8.62765 46.197 8.57234 46.4283 8.59166C46.6096 8.57766 46.7916 8.60574 46.9608 8.67382C47.1301 8.7419 47.2823 8.84824 47.4061 8.98496C47.53 9.12167 47.6223 9.28526 47.6762 9.46361C47.7302 9.64196 47.7443 9.83049 47.7177 10.0152V12.493H46.9825V10.2049C46.9825 9.58984 46.7224 9.28395 46.1786 9.28395C46.0556 9.27806 45.9327 9.29958 45.8185 9.34704C45.7043 9.39449 45.6014 9.46676 45.5169 9.55889C45.4324 9.65102 45.3683 9.76082 45.329 9.88078C45.2897 10.0007 45.2761 10.128 45.2891 10.2539V12.493H44.5539L44.5539 8.66554Z" fill="white"/>
<path d="M48.8892 7.17139H49.6244V12.493H48.8892V7.17139Z" fill="white"/>
<path d="M50.6465 10.5775C50.6231 10.326 50.6511 10.0722 50.7287 9.83243C50.8064 9.59267 50.932 9.37222 51.0974 9.18523C51.2628 8.99824 51.4645 8.84884 51.6894 8.7466C51.9143 8.64436 52.1576 8.59155 52.4035 8.59155C52.6495 8.59155 52.8927 8.64436 53.1176 8.7466C53.3425 8.84884 53.5442 8.99824 53.7096 9.18523C53.875 9.37222 54.0006 9.59267 54.0783 9.83243C54.1559 10.0722 54.1839 10.326 54.1605 10.5775C54.1844 10.8293 54.1567 11.0835 54.0792 11.3236C54.0018 11.5638 53.8763 11.7846 53.7108 11.972C53.5453 12.1593 53.3435 12.309 53.1184 12.4115C52.8932 12.5139 52.6497 12.5668 52.4035 12.5668C52.1573 12.5668 51.9138 12.5139 51.6886 12.4115C51.4635 12.309 51.2617 12.1593 51.0962 11.972C50.9307 11.7846 50.8052 11.5638 50.7278 11.3236C50.6503 11.0835 50.6226 10.8293 50.6465 10.5775ZM53.4039 10.5775C53.4039 9.74789 53.0411 9.26271 52.4045 9.26271C51.7654 9.26271 51.4059 9.74789 51.4059 10.5776C51.4059 11.4139 51.7655 11.8953 52.4045 11.8953C53.0412 11.8953 53.4039 11.4105 53.4039 10.5775H53.4039Z" fill="white"/>
<path d="M54.9345 11.4105C54.9345 10.7215 55.4338 10.3243 56.3201 10.2679L57.3292 10.2081V9.87776C57.3292 9.4735 57.0691 9.24524 56.5666 9.24524C56.1561 9.24524 55.8717 9.40005 55.7901 9.67065H55.0784C55.1535 9.01323 55.7554 8.59155 56.6005 8.59155C57.5344 8.59155 58.0612 9.06925 58.0612 9.87776V12.4929H57.3535V11.955H57.2953C57.1772 12.148 57.0114 12.3053 56.8148 12.4108C56.6183 12.5164 56.3979 12.5665 56.1763 12.556C56.0199 12.5727 55.8619 12.5555 55.7123 12.5057C55.5628 12.4558 55.4251 12.3742 55.3081 12.2663C55.1911 12.1584 55.0974 12.0265 55.0331 11.8791C54.9687 11.7317 54.9352 11.572 54.9345 11.4105ZM57.3292 11.0834V10.7634L56.4195 10.8232C55.9065 10.8585 55.6738 11.0378 55.6738 11.3752C55.6738 11.7197 55.9646 11.9202 56.3646 11.9202C56.4818 11.9323 56.6002 11.9202 56.7127 11.8844C56.8252 11.8486 56.9296 11.79 57.0196 11.7119C57.1096 11.6338 57.1834 11.538 57.2366 11.43C57.2898 11.322 57.3213 11.2042 57.3292 11.0834Z" fill="white"/>
<path d="M59.0275 10.5776C59.0275 9.3682 59.6326 8.60204 60.5739 8.60204C60.8067 8.59102 61.0377 8.64831 61.24 8.76722C61.4423 8.88613 61.6075 9.06175 61.7163 9.27354H61.7712V7.17139H62.5064V12.493H61.8019V11.8883H61.7437C61.6266 12.0987 61.4556 12.2721 61.2494 12.3898C61.0432 12.5075 60.8096 12.565 60.5739 12.5561C59.6262 12.5561 59.0275 11.79 59.0275 10.5776ZM59.787 10.5776C59.787 11.3894 60.1594 11.8779 60.7823 11.8779C61.402 11.8779 61.785 11.3824 61.785 10.5809C61.785 9.78324 61.398 9.28063 60.7823 9.28063C60.1634 9.28063 59.7869 9.77245 59.7869 10.5776H59.787Z" fill="white"/>
<path d="M65.5483 10.5777C65.5248 10.3262 65.5528 10.0724 65.6305 9.83265C65.7081 9.59289 65.8337 9.37245 65.9991 9.18546C66.1645 8.99848 66.3661 8.84908 66.591 8.74684C66.8159 8.64461 67.0591 8.5918 67.3051 8.5918C67.551 8.5918 67.7942 8.64461 68.0191 8.74684C68.2441 8.84908 68.4457 8.99848 68.6111 9.18546C68.7765 9.37245 68.9021 9.59289 68.9797 9.83265C69.0573 10.0724 69.0853 10.3262 69.0619 10.5777C69.0858 10.8295 69.0581 11.0836 68.9807 11.3238C68.9032 11.5639 68.7778 11.7848 68.6123 11.9721C68.4469 12.1595 68.2451 12.3092 68.0199 12.4117C67.7948 12.5141 67.5513 12.567 67.3051 12.567C67.0589 12.567 66.8153 12.5141 66.5902 12.4117C66.3651 12.3092 66.1633 12.1595 65.9978 11.9721C65.8324 11.7848 65.7069 11.5639 65.6295 11.3238C65.5521 11.0836 65.5244 10.8295 65.5483 10.5777ZM68.3057 10.5777C68.3057 9.74806 67.9429 9.26288 67.3063 9.26288C66.6672 9.26288 66.3077 9.74806 66.3077 10.5777C66.3077 11.414 66.6673 11.8955 67.3063 11.8955C67.9429 11.8955 68.3057 11.4107 68.3057 10.5777Z" fill="white"/>
<path d="M70.0484 8.66554H70.7561V9.27357H70.8111C70.9043 9.05519 71.0615 8.87212 71.2608 8.74989C71.46 8.62765 71.6915 8.57234 71.9228 8.59166C72.1041 8.57766 72.2861 8.60574 72.4553 8.67382C72.6246 8.7419 72.7768 8.84824 72.9006 8.98496C73.0245 9.12167 73.1168 9.28526 73.1707 9.46361C73.2246 9.64196 73.2388 9.83049 73.2122 10.0152V12.493H72.477V10.2049C72.477 9.58984 72.2169 9.28395 71.6731 9.28395C71.5501 9.27806 71.4272 9.29958 71.313 9.34704C71.1988 9.39449 71.0959 9.46676 71.0114 9.55889C70.9269 9.65102 70.8628 9.76082 70.8235 9.88078C70.7842 10.0007 70.7706 10.128 70.7836 10.2539V12.493H70.0484V8.66554Z" fill="white"/>
<path d="M77.3666 7.71265V8.68301H78.1737V9.31927H77.3666V11.2874C77.3666 11.6883 77.5274 11.8639 77.8934 11.8639C77.9871 11.8636 78.0807 11.8577 78.1737 11.8464V12.4756C78.0417 12.4999 77.9079 12.5128 77.7738 12.5142C76.9562 12.5142 76.6306 12.2187 76.6306 11.4808V9.31923H76.0392V8.68297H76.6306V7.71265H77.3666Z" fill="white"/>
<path d="M79.178 7.17139H79.9067V9.28062H79.9649C80.0626 9.0602 80.2241 8.87609 80.4274 8.7534C80.6307 8.6307 80.8658 8.57538 81.1008 8.59497C81.2811 8.58489 81.4614 8.61582 81.6287 8.68556C81.7961 8.7553 81.9464 8.86212 82.0689 8.9984C82.1915 9.13469 82.2832 9.29709 82.3376 9.474C82.3921 9.65091 82.4078 9.83799 82.3838 10.0219V12.493H81.6478V10.2082C81.6478 9.59687 81.3707 9.28725 80.8512 9.28725C80.7248 9.2766 80.5977 9.29445 80.4788 9.33954C80.3598 9.38464 80.2519 9.45589 80.1626 9.54832C80.0732 9.64075 80.0046 9.75212 79.9616 9.87463C79.9185 9.99715 79.902 10.1279 79.9132 10.2576V12.493H79.178L79.178 7.17139Z" fill="white"/>
<path d="M86.6707 11.4595C86.5708 11.8093 86.3544 12.1119 86.0593 12.3144C85.7642 12.5168 85.4092 12.6062 85.0564 12.5669C84.811 12.5735 84.5671 12.5252 84.3416 12.4253C84.1162 12.3254 83.9146 12.1763 83.7509 11.9883C83.5871 11.8004 83.4652 11.578 83.3935 11.3368C83.3217 11.0956 83.302 10.8412 83.3355 10.5913C83.3029 10.3406 83.323 10.0857 83.3945 9.84371C83.4661 9.60174 83.5874 9.37839 83.7503 9.18877C83.9131 8.99916 84.1138 8.84771 84.3386 8.74469C84.5633 8.64166 84.8071 8.58946 85.0532 8.59162C86.0898 8.59162 86.7151 9.31922 86.7151 10.5211V10.7847H84.0845V10.827C84.073 10.9675 84.0902 11.1089 84.1349 11.2421C84.1797 11.3753 84.2511 11.4975 84.3445 11.6007C84.4379 11.704 84.5513 11.786 84.6774 11.8416C84.8035 11.8972 84.9394 11.9251 85.0766 11.9235C85.2525 11.9452 85.4307 11.9127 85.5885 11.8301C85.7463 11.7474 85.8766 11.6184 85.9629 11.4595L86.6707 11.4595ZM84.0845 10.226H85.9661C85.9754 10.0976 85.9584 9.96855 85.9162 9.84724C85.8741 9.72593 85.8077 9.61502 85.7213 9.52164C85.635 9.42826 85.5306 9.35448 85.4148 9.30503C85.299 9.25558 85.1745 9.23156 85.0491 9.23451C84.922 9.23287 84.7958 9.2574 84.678 9.30665C84.5602 9.35591 84.4532 9.42889 84.3633 9.52129C84.2734 9.6137 84.2024 9.72366 84.1545 9.8447C84.1067 9.96574 84.0828 10.0954 84.0845 10.226H84.0845Z" fill="white"/>
</g>
<defs>
<clipPath id="clip0_23_394">
<rect width="99" height="34" fill="white"/>
</clipPath>
</defs>
</svg>
