<svg width="112" height="34" viewBox="0 0 112 34" fill="none" xmlns="http://www.w3.org/2000/svg">
<g clip-path="url(#clip0_23_429)">
<path d="M107.852 0H4.14815C1.85719 0 0 1.90279 0 4.25V29.75C0 32.0972 1.85719 34 4.14815 34H107.852C110.143 34 112 32.0972 112 29.75V4.25C112 1.90279 110.143 0 107.852 0Z" fill="black"/>
<path d="M107.852 0.68C108.776 0.68 109.662 1.05612 110.316 1.72563C110.969 2.39513 111.336 3.30318 111.336 4.25V29.75C111.336 30.6968 110.969 31.6049 110.316 32.2744C109.662 32.9439 108.776 33.32 107.852 33.32H4.14815C3.22402 33.32 2.33773 32.9439 1.68427 32.2744C1.03081 31.6049 0.663704 30.6968 0.663704 29.75V4.25C0.663704 3.30318 1.03081 2.39513 1.68427 1.72563C2.33773 1.05612 3.22402 0.68 4.14815 0.68H107.852ZM107.852 0H4.14815C3.04799 0 1.99289 0.447767 1.21496 1.2448C0.437036 2.04183 0 3.12283 0 4.25V29.75C0 30.8772 0.437036 31.9582 1.21496 32.7552C1.99289 33.5522 3.04799 34 4.14815 34H107.852C108.952 34 110.007 33.5522 110.785 32.7552C111.563 31.9582 112 30.8772 112 29.75V4.25C112 3.12283 111.563 2.04183 110.785 1.2448C110.007 0.447767 108.952 0 107.852 0Z" fill="#A6A6A6"/>
<path d="M39.341 8.70393C39.3547 9.01565 39.3066 9.32697 39.1996 9.61913C39.0927 9.91129 38.9291 10.1783 38.7188 10.4039C38.4831 10.6532 38.1987 10.8487 37.8842 10.9776C37.5697 11.1065 37.2321 11.1659 36.8936 11.1519C36.5532 11.1597 36.2148 11.0958 35.8995 10.9642C35.5841 10.8327 35.2984 10.6362 35.0602 10.3869C34.5767 9.8803 34.3061 9.19994 34.3061 8.49143C34.3061 7.78293 34.5767 7.10256 35.0602 6.59593C35.4298 6.22591 35.8978 5.97606 36.4056 5.87776C36.9134 5.77946 37.4382 5.8371 37.9141 6.04343C38.2132 6.16943 38.4801 6.36429 38.6939 6.61293L38.2542 7.06343C38.0895 6.86009 37.8807 6.6989 37.6445 6.59266C37.4084 6.48643 37.1512 6.43807 36.8936 6.45143C36.5684 6.45374 36.2487 6.53762 35.9625 6.69574C35.6762 6.85386 35.4321 7.0814 35.2516 7.35849C35.071 7.63558 34.9593 7.95377 34.9265 8.28525C34.8936 8.61674 34.9405 8.95142 35.063 9.26005C35.1856 9.56868 35.38 9.84187 35.6294 10.0557C35.8788 10.2696 36.1755 10.4176 36.4936 10.4868C36.8117 10.5561 37.1415 10.5444 37.4542 10.4529C37.7669 10.3614 38.053 10.1929 38.2874 9.96193C38.5408 9.67727 38.6878 9.30993 38.7022 8.92493H36.8936V8.31293H39.3079C39.3267 8.44245 39.3378 8.57302 39.341 8.70393Z" fill="white" stroke="white" stroke-width="0.411304" stroke-miterlimit="10"/>
<path d="M43.1407 6.57895H40.9007V8.19395H42.9416V8.80595H40.9007V10.421H43.1407V11.05H40.2536V5.94995H43.1407V6.57895Z" fill="white" stroke="white" stroke-width="0.411304" stroke-miterlimit="10"/>
<path d="M45.8619 11.05H45.2231V6.57895H43.8293V5.94995H47.2889V6.57895H45.8619V11.05Z" fill="white" stroke="white" stroke-width="0.411304" stroke-miterlimit="10"/>
<path d="M49.728 11.05V5.94995H50.3668V11.05H49.728Z" fill="white" stroke="white" stroke-width="0.411304" stroke-miterlimit="10"/>
<path d="M53.2041 11.05H52.5653V6.57895H51.1716V5.94995H54.5896V6.57895H53.2041V11.05Z" fill="white" stroke="white" stroke-width="0.411304" stroke-miterlimit="10"/>
<path d="M61.069 10.387C60.8294 10.6327 60.5449 10.8276 60.2317 10.9606C59.9185 11.0936 59.5829 11.162 59.2439 11.162C58.9048 11.162 58.5692 11.0936 58.256 10.9606C57.9428 10.8276 57.6583 10.6327 57.4187 10.387C56.9497 9.87617 56.6885 9.20128 56.6885 8.49998C56.6885 7.79867 56.9497 7.12378 57.4187 6.61298C57.6531 6.36035 57.9367 6.16097 58.2511 6.02773C58.5655 5.89449 58.9037 5.83035 59.2439 5.83948C59.5835 5.83397 59.9206 5.89976 60.2345 6.03278C60.5484 6.16581 60.8324 6.36326 61.069 6.61298C61.3076 6.86159 61.4951 7.15666 61.6205 7.48076C61.7459 7.80487 61.8066 8.15142 61.7991 8.49998C61.81 8.84896 61.7508 9.19652 61.6252 9.52111C61.4996 9.8457 61.3103 10.1404 61.069 10.387ZM57.8916 9.96198C58.0683 10.1455 58.2788 10.2912 58.511 10.3906C58.7431 10.4901 58.9922 10.5413 59.2439 10.5413C59.4955 10.5413 59.7446 10.4901 59.9767 10.3906C60.2089 10.2912 60.4194 10.1455 60.5961 9.96198C60.9541 9.56343 61.1528 9.0416 61.1528 8.49998C61.1528 7.95835 60.9541 7.43652 60.5961 7.03798C60.4194 6.85448 60.2089 6.70878 59.9767 6.60933C59.7446 6.50989 59.4955 6.45868 59.2439 6.45868C58.9922 6.45868 58.7431 6.50989 58.511 6.60933C58.2788 6.70878 58.0683 6.85448 57.8916 7.03798C57.5336 7.43652 57.3349 7.95835 57.3349 8.49998C57.3349 9.0416 57.5336 9.56343 57.8916 9.96198Z" fill="white" stroke="white" stroke-width="0.411304" stroke-miterlimit="10"/>
<path d="M62.7034 11.05V5.94995H63.475L65.8975 9.91945V8.93345V5.94995H66.5363V11.05H65.8726L63.3422 6.89345V7.87095V11.05H62.7034Z" fill="white" stroke="white" stroke-width="0.411304" stroke-miterlimit="10"/>
<path d="M56.531 18.4875C55.832 18.4892 55.1492 18.7032 54.5689 19.1025C53.9886 19.5018 53.5369 20.0684 53.2709 20.7307C53.0049 21.393 52.9366 22.1212 53.0746 22.8233C53.2126 23.5254 53.5506 24.1697 54.0461 24.675C54.5415 25.1802 55.172 25.5235 55.8579 25.6616C56.5438 25.7997 57.2543 25.7262 57.8994 25.4506C58.5446 25.175 59.0955 24.7096 59.4825 24.1132C59.8695 23.5168 60.0751 22.8162 60.0735 22.1C60.0803 21.6223 59.9931 21.148 59.8173 20.7055C59.6414 20.2629 59.3805 19.8612 59.0499 19.5241C58.7194 19.187 58.326 18.9216 57.8933 18.7435C57.4605 18.5654 56.9972 18.4784 56.531 18.4875ZM56.531 24.293C56.1025 24.3237 55.675 24.2217 55.3039 24.0001C54.9328 23.7786 54.6354 23.4478 54.4503 23.0507C54.2651 22.6537 54.2009 22.2087 54.2658 21.7738C54.3308 21.3388 54.5219 20.9339 54.8144 20.6117C55.107 20.2895 55.4873 20.065 55.9061 19.9672C56.3248 19.8694 56.7626 19.903 57.1625 20.0635C57.5624 20.224 57.9059 20.5041 58.1483 20.8673C58.3908 21.2305 58.521 21.66 58.5221 22.1C58.5354 22.3788 58.4942 22.6576 58.4007 22.9198C58.3073 23.182 58.1635 23.4224 57.978 23.6268C57.7924 23.8312 57.5688 23.9954 57.3202 24.1098C57.0717 24.2243 56.8034 24.2866 56.531 24.293ZM48.7988 18.4875C48.0998 18.4892 47.417 18.7032 46.8367 19.1025C46.2564 19.5018 45.8047 20.0684 45.5388 20.7307C45.2728 21.393 45.2045 22.1212 45.3424 22.8233C45.4804 23.5254 45.8185 24.1697 46.3139 24.675C46.8094 25.1802 47.4399 25.5235 48.1258 25.6616C48.8117 25.7997 49.5221 25.7262 50.1673 25.4506C50.8124 25.175 51.3633 24.7096 51.7503 24.1132C52.1373 23.5168 52.343 22.8162 52.3413 22.1C52.3481 21.6223 52.261 21.148 52.0851 20.7055C51.9093 20.2629 51.6483 19.8612 51.3178 19.5241C50.9873 19.187 50.5939 18.9216 50.1611 18.7435C49.7284 18.5654 49.2651 18.4784 48.7988 18.4875ZM48.7988 24.293C48.3704 24.3237 47.9428 24.2217 47.5718 24.0001C47.2007 23.7786 46.9033 23.4478 46.7181 23.0507C46.533 22.6537 46.4687 22.2087 46.5337 21.7738C46.5986 21.3388 46.7898 20.9339 47.0823 20.6117C47.3748 20.2895 47.7552 20.065 48.1739 19.9672C48.5927 19.8694 49.0304 19.903 49.4303 20.0635C49.8302 20.224 50.1737 20.5041 50.4162 20.8673C50.6587 21.2305 50.7889 21.66 50.7899 22.1C50.8033 22.3788 50.762 22.6576 50.6686 22.9198C50.5751 23.182 50.4314 23.4224 50.2458 23.6268C50.0602 23.8312 49.8366 23.9954 49.5881 24.1098C49.3396 24.2243 49.0712 24.2866 48.7988 24.293ZM39.6065 19.601V21.131H43.1905C43.1343 21.8517 42.842 22.5317 42.3609 23.0605C42.0014 23.4358 41.569 23.7296 41.0917 23.9229C40.6143 24.1161 40.1027 24.2046 39.5899 24.1825C38.5338 24.1825 37.5209 23.7527 36.7741 22.9875C36.0273 22.2224 35.6077 21.1846 35.6077 20.1025C35.6077 19.0205 36.0273 17.9827 36.7741 17.2175C37.5209 16.4524 38.5338 16.0225 39.5899 16.0225C40.6025 16.0071 41.5801 16.4011 42.3111 17.119L43.3647 16.0395C42.8703 15.5385 42.2832 15.1435 41.6378 14.8779C40.9925 14.6123 40.3019 14.4812 39.6065 14.4925C38.869 14.4631 38.1332 14.5866 37.4434 14.8555C36.7535 15.1243 36.1237 15.5332 35.5917 16.0574C35.0598 16.5816 34.6366 17.2105 34.3475 17.9063C34.0584 18.6021 33.9094 19.3506 33.9094 20.1068C33.9094 20.863 34.0584 21.6114 34.3475 22.3073C34.6366 23.0031 35.0598 23.6319 35.5917 24.1562C36.1237 24.6804 36.7535 25.0892 37.4434 25.3581C38.1332 25.627 38.869 25.7504 39.6065 25.721C40.3162 25.7501 41.0239 25.625 41.683 25.354C42.3422 25.083 42.9379 24.6721 43.4311 24.1485C44.3023 23.168 44.7665 21.8783 44.7253 20.553C44.7283 20.234 44.7033 19.9154 44.6507 19.601H39.6065ZM77.197 20.791C76.9807 20.1389 76.5761 19.5694 76.0368 19.1581C75.4975 18.7467 74.849 18.5129 74.1772 18.4875C73.7234 18.4866 73.2742 18.5811 72.8574 18.7651C72.4407 18.9491 72.0652 19.2187 71.7542 19.5573C71.4431 19.8959 71.2032 20.2962 71.0492 20.7336C70.8951 21.1709 70.8303 21.636 70.8587 22.1C70.8516 22.876 71.0897 23.6334 71.5374 24.2593C71.9851 24.8851 72.6185 25.3458 73.3428 25.5724C74.0671 25.7991 74.8436 25.7795 75.5562 25.5168C76.2688 25.254 76.8794 24.7621 77.2966 24.1145L76.0936 23.2645C75.9143 23.5708 75.66 23.8237 75.3558 23.9981C75.0516 24.1726 74.7083 24.2625 74.3597 24.259C74.0001 24.2742 73.6445 24.1777 73.3394 23.982C73.0344 23.7863 72.7943 23.5006 72.6507 23.1625L77.3713 21.165L77.197 20.791ZM72.3852 21.998C72.3684 21.734 72.4031 21.4692 72.4875 21.2191C72.5718 20.969 72.704 20.7387 72.8763 20.5416C73.0485 20.3445 73.2575 20.1846 73.4908 20.0712C73.7242 19.9579 73.9773 19.8934 74.2353 19.8815C74.5026 19.8648 74.7688 19.9293 75.0005 20.0669C75.2322 20.2045 75.4191 20.4091 75.5378 20.655L72.3852 21.998ZM68.5523 25.5H70.1037V14.875H68.5523V25.5ZM66.0136 19.295H65.9556C65.7238 19.0246 65.4378 18.8087 65.117 18.662C64.7963 18.5153 64.4484 18.4413 64.0972 18.445C63.1906 18.4901 62.3356 18.8908 61.7095 19.5641C61.0834 20.2375 60.7342 21.1318 60.7342 22.0618C60.7342 22.9918 61.0834 23.8861 61.7095 24.5594C62.3356 25.2328 63.1906 25.6335 64.0972 25.6785C64.4489 25.6858 64.7979 25.6133 65.1191 25.4664C65.4404 25.3195 65.726 25.1016 65.9556 24.8285H66.0136V25.347C66.0136 26.7325 65.2919 27.472 64.1304 27.472C63.7424 27.4633 63.3657 27.3366 63.0481 27.1081C62.7305 26.8796 62.4864 26.5595 62.3467 26.1885L61.0027 26.758C61.2512 27.3974 61.6832 27.9445 62.2416 28.327C62.8001 28.7095 63.4587 28.9093 64.1304 28.9C65.9473 28.9 67.4489 27.8035 67.4489 25.1345V18.7H66.0136V19.295ZM64.2299 24.293C63.6864 24.2583 63.1762 24.0126 62.8032 23.6059C62.4303 23.1993 62.2227 22.6623 62.2227 22.1043C62.2227 21.5463 62.4303 21.0093 62.8032 20.6026C63.1762 20.196 63.6864 19.9503 64.2299 19.9155C64.4956 19.9273 64.7563 19.9937 64.9964 20.1107C65.2365 20.2278 65.4512 20.3931 65.6277 20.597C65.8042 20.8008 65.9388 21.0389 66.0237 21.2971C66.1085 21.5553 66.1418 21.8284 66.1215 22.1C66.1441 22.3726 66.1126 22.6471 66.0287 22.9068C65.9449 23.1665 65.8105 23.4062 65.6336 23.6112C65.4568 23.8161 65.2413 23.9823 65 24.0995C64.7587 24.2167 64.4967 24.2825 64.2299 24.293ZM84.4646 14.875H80.7479V25.5H82.2993V21.471H84.4646C84.9067 21.5036 85.3507 21.4424 85.7688 21.2915C86.1869 21.1405 86.5701 20.9028 86.8946 20.5934C87.2191 20.284 87.4779 19.9094 87.6548 19.4929C87.8318 19.0765 87.9231 18.6272 87.9231 18.173C87.9231 17.7189 87.8318 17.2695 87.6548 16.8531C87.4779 16.4367 87.2191 16.0621 86.8946 15.7527C86.5701 15.4432 86.1869 15.2056 85.7688 15.0546C85.3507 14.9036 84.9067 14.8425 84.4646 14.875ZM84.4646 19.975H82.2993V16.354H84.4978C84.7309 16.354 84.9618 16.4011 85.1772 16.4925C85.3926 16.5839 85.5883 16.7179 85.7532 16.8868C85.918 17.0557 86.0488 17.2562 86.138 17.4769C86.2273 17.6976 86.2732 17.9342 86.2732 18.173C86.2732 18.4119 86.2273 18.6484 86.138 18.8691C86.0488 19.0898 85.918 19.2903 85.7532 19.4593C85.5883 19.6282 85.3926 19.7622 85.1772 19.8536C84.9618 19.945 84.7309 19.992 84.4978 19.992L84.4646 19.975ZM94.0385 18.4535C93.4735 18.4178 92.9108 18.5526 92.4197 18.8411C91.9287 19.1297 91.531 19.5594 91.2759 20.077L92.6447 20.6635C92.7831 20.408 92.9906 20.199 93.2424 20.0618C93.4941 19.9245 93.7793 19.8649 94.0634 19.89C94.2604 19.8665 94.4599 19.8833 94.6504 19.9396C94.8409 19.9959 95.0186 20.0905 95.1731 20.2179C95.3275 20.3453 95.4557 20.5029 95.55 20.6816C95.6444 20.8602 95.7031 21.0564 95.7227 21.2585V21.3605C95.2238 21.0919 94.6685 20.9518 94.1049 20.9525C92.6282 20.9525 91.1182 21.8025 91.1182 23.3495C91.1328 23.6784 91.2118 24.0008 91.3504 24.2977C91.489 24.5947 91.6845 24.8601 91.9251 25.0781C92.1658 25.2961 92.4468 25.4624 92.7514 25.567C93.056 25.6716 93.3781 25.7124 93.6984 25.687C94.0877 25.7091 94.4757 25.6247 94.8227 25.4425C95.1697 25.2602 95.4631 24.9867 95.6729 24.65H95.7227V25.5H97.216V21.4115C97.216 19.55 95.8388 18.4705 94.0717 18.4705L94.0385 18.4535ZM93.8477 24.276C93.3416 24.276 92.6365 24.0125 92.6365 23.375C92.6365 22.525 93.5159 22.236 94.2957 22.236C94.7885 22.2236 95.2756 22.3469 95.7061 22.593C95.654 23.0546 95.4404 23.4813 95.1048 23.7938C94.7692 24.1064 94.3344 24.2838 93.8809 24.293L93.8477 24.276ZM102.658 18.7L100.883 23.307H100.833L98.9914 18.7H97.3322L100.095 25.143L98.5185 28.7215H100.136L104.384 18.7H102.658ZM88.7206 25.5H90.2637V14.875H88.7206V25.5Z" fill="white"/>
<path d="M8.66133 6.40911C8.38794 6.74029 8.24845 7.166 8.27141 7.59911V26.4011C8.24318 26.8349 8.38332 27.2626 8.66133 27.5911L8.71941 27.6591L18.9985 17.1276V16.8726L8.71941 6.34961L8.66133 6.40911Z" fill="url(#paint0_linear_23_429)"/>
<path d="M22.4 20.6381L18.9985 17.1276V16.8726L22.4 13.3621L22.4747 13.4131L26.5481 15.7761C27.7096 16.4476 27.7096 17.5526 26.5481 18.2326L22.4912 20.5956L22.4 20.6381Z" fill="url(#paint1_linear_23_429)"/>
<path d="M22.4996 20.587L18.9985 17L8.66134 27.591C8.89577 27.8048 9.19584 27.9278 9.50951 27.9387C9.82318 27.9495 10.1307 27.8476 10.3787 27.6505L22.4996 20.587Z" fill="url(#paint2_linear_23_429)"/>
<path d="M22.4996 13.413L10.3787 6.358C10.1323 6.15817 9.82504 6.05375 9.51094 6.06307C9.19684 6.0724 8.89601 6.19489 8.66134 6.409L18.9985 17L22.4996 13.413Z" fill="url(#paint3_linear_23_429)"/>
<path opacity="0.2" d="M22.4 20.5105L10.3787 27.523C10.1397 27.7078 9.84844 27.8078 9.54904 27.8078C9.24964 27.8078 8.95839 27.7078 8.71941 27.523L8.66134 27.5825L8.71941 27.6505C8.95839 27.8353 9.24964 27.9353 9.54904 27.9353C9.84844 27.9353 10.1397 27.8353 10.3787 27.6505L22.4996 20.587L22.4 20.5105Z" fill="black"/>
<path opacity="0.12" d="M8.66133 27.4719C8.39485 27.1348 8.26426 26.706 8.29629 26.2734V26.4009C8.26806 26.8348 8.40821 27.2624 8.68622 27.5909L8.7443 27.5314L8.66133 27.4719Z" fill="black"/>
<path opacity="0.12" d="M26.5482 18.105L22.4 20.5105L22.4747 20.587L26.5482 18.224C26.7886 18.1198 26.9972 17.9512 27.152 17.7358C27.3067 17.5204 27.4019 17.2662 27.4276 17C27.3757 17.2419 27.2691 17.4679 27.1163 17.6598C26.9636 17.8518 26.769 18.0043 26.5482 18.105Z" fill="black"/>
<path opacity="0.25" d="M10.3787 6.47688L26.5481 15.8949C26.769 15.9956 26.9636 16.1481 27.1163 16.3401C27.2691 16.532 27.3757 16.758 27.4276 16.9999C27.4019 16.7337 27.3067 16.4795 27.152 16.2641C26.9972 16.0487 26.7886 15.8801 26.5481 15.7759L10.3787 6.35788C9.22548 5.67788 8.27141 6.23888 8.27141 7.59888V7.72638C8.2963 6.36638 9.22548 5.80538 10.3787 6.47688Z" fill="white"/>
</g>
<defs>
<linearGradient id="paint0_linear_23_429" x1="18.0859" y1="7.40361" x2="3.82712" y2="21.3207" gradientUnits="userSpaceOnUse">
<stop stop-color="#00A0FF"/>
<stop offset="0.01" stop-color="#00A1FF"/>
<stop offset="0.26" stop-color="#00BEFF"/>
<stop offset="0.51" stop-color="#00D2FF"/>
<stop offset="0.76" stop-color="#00DFFF"/>
<stop offset="1" stop-color="#00E3FF"/>
</linearGradient>
<linearGradient id="paint1_linear_23_429" x1="28.0664" y1="17.0001" x2="7.99762" y2="17.0001" gradientUnits="userSpaceOnUse">
<stop stop-color="#FFE000"/>
<stop offset="0.41" stop-color="#FFBD00"/>
<stop offset="0.78" stop-color="#FFA500"/>
<stop offset="1" stop-color="#FF9C00"/>
</linearGradient>
<linearGradient id="paint2_linear_23_429" x1="20.5997" y1="18.955" x2="1.2596" y2="37.8233" gradientUnits="userSpaceOnUse">
<stop stop-color="#FF3A44"/>
<stop offset="1" stop-color="#C31162"/>
</linearGradient>
<linearGradient id="paint3_linear_23_429" x1="6.0563" y1="0.152999" x2="14.6898" y2="8.57956" gradientUnits="userSpaceOnUse">
<stop stop-color="#32A071"/>
<stop offset="0.07" stop-color="#2DA771"/>
<stop offset="0.48" stop-color="#15CF74"/>
<stop offset="0.8" stop-color="#06E775"/>
<stop offset="1" stop-color="#00F076"/>
</linearGradient>
<clipPath id="clip0_23_429">
<rect width="112" height="34" fill="white"/>
</clipPath>
</defs>
</svg>
