<?xml version="1.0" encoding="utf-8"?>
<!-- Generator: Adobe Illustrator 24.3.0, SVG Export Plug-In . SVG Version: 6.00 Build 0)  -->
<svg version="1.1" id="Layer_1" xmlns="http://www.w3.org/2000/svg" xmlns:xlink="http://www.w3.org/1999/xlink" x="0px" y="0px"
	 viewBox="0 0 1054.9 305.2" style="enable-background:new 0 0 1054.9 305.2;" xml:space="preserve">
<style type="text/css">
	.st0{fill:#010101;}
	.st1{fill:#FEC40E;}
</style>
<path class="st0" d="M0,235.2V6.2L32.7,0v235.2H0z"/>
<path class="st0" d="M104.3,238.1c-12,0-22.6-2.1-31.7-6.4c-8.7-3.9-16.2-10-21.6-17.8c-5.3-7.8-8-17-7.8-26.5
	c0-15.7,6-28.1,18-37.1c12-9.1,28.5-13.6,49.4-13.6c15.7-0.1,31.2,3.1,45.5,9.5v-17.7c0-12-3.4-20.9-10.3-26.8
	c-6.9-5.9-16.9-8.8-30.2-8.8c-8.1,0.1-16.1,1.2-23.9,3.4c-9.5,2.8-18.8,6.3-27.8,10.6L51.7,82.4C63,77,74.8,72.7,87,69.5
	c10.8-2.7,21.9-4.1,33-4.1c21.6,0,38.3,5.1,50.2,15.4C182.1,91,188,105.7,188,124.6v110.5h-32v-14.4c-7.1,5.7-15.2,10.2-23.9,13.1
	C123.2,236.8,113.8,238.2,104.3,238.1z M74.6,186.8c0,8.1,3.4,14.6,10.3,19.6c6.9,5,15.9,7.5,27,7.5c8.2,0.1,16.3-1.2,24-3.9
	c7.4-2.7,14.3-6.8,20.1-12.1v-28.1c-6.2-3.6-12.8-6.3-19.8-8c-7.6-1.7-15.3-2.5-23.1-2.5c-12,0-21.4,2.5-28.3,7.4
	C78.2,171.2,74.3,178.7,74.6,186.8z"/>
<path class="st0" d="M288.5,305.2c-12,0-24-1.4-35.6-4.2c-11-2.6-21.5-6.7-31.4-12.1l12.4-25.5c8.8,4.6,18.1,8.3,27.6,11
	c8.5,2.3,17.2,3.4,26,3.4c14.6,0,25.7-3.4,33.2-10.1c7.5-6.8,11.3-16.7,11.3-29.8v-19c-14.2,11.4-31.8,17.5-50,17.3
	c-14.8,0.1-29.3-3.8-42-11.3c-12.6-7.4-23.1-18-30.2-30.7c-14.9-26.9-14.8-59.5,0.2-86.4c7.3-12.7,17.8-23.3,30.4-30.7
	c12.8-7.5,27.1-11.3,43-11.3c8.9,0,17.6,1.5,26,4.4c8.3,2.9,16.1,7.2,23.1,12.6V68.7h32.4v169.1c0,21.6-6.6,38.2-19.8,49.9
	C331.7,299.3,312.9,305.2,288.5,305.2z M284.8,209.7c9.2,0.1,18.4-1.7,26.9-5.2c7.8-3.3,14.8-8.5,20.2-15v-76.7
	c-5.6-6.4-12.5-11.5-20.4-14.8c-8.5-3.6-17.6-5.5-26.8-5.4c-10.2-0.1-20.3,2.5-29.1,7.7c-8.6,5.1-15.6,12.3-20.5,21
	c-10.1,18.6-10.1,41,0,59.6c4.9,8.7,12,16,20.5,21C264.5,207.1,274.6,209.8,284.8,209.7z"/>
<path class="st0" d="M436.3,238.1c-12,0-22.6-2.1-31.7-6.4c-8.7-3.9-16.2-10-21.6-17.8c-5.3-7.8-8-17.1-7.8-26.5
	c0-15.7,6-28.1,18-37.1c12-9.1,28.5-13.6,49.4-13.6c15.7-0.1,31.2,3.1,45.5,9.5v-17.7c0-12-3.4-20.9-10.3-26.8
	c-6.9-5.9-16.9-8.8-30.2-8.8c-8.1,0.1-16.1,1.2-23.9,3.4c-9.5,2.8-18.8,6.3-27.8,10.6l-12.1-24.5C395,77,406.8,72.7,419,69.5
	c10.8-2.7,21.9-4.1,33-4.1c21.6,0,38.3,5.1,50.2,15.4C514.1,91,520,105.7,520,124.6v110.5h-32v-14.4c-7.1,5.7-15.2,10.2-23.9,13.1
	C455.1,236.8,445.7,238.2,436.3,238.1z M406.5,186.8c0,8.1,3.4,14.6,10.3,19.6s15.9,7.5,27,7.5c8.2,0.1,16.3-1.2,24-3.9
	c7.4-2.7,14.3-6.8,20.1-12.1v-28.1c-6.2-3.6-12.8-6.3-19.8-8c-7.6-1.7-15.3-2.5-23.1-2.5c-12,0-21.4,2.5-28.3,7.4
	C410.2,171.2,406.3,178.7,406.5,186.8z"/>
<path class="st0" d="M538,235.2V68.7h32.7v17c12.9-13.5,29.5-20.2,50-20.2c12.9,0,24.2,2.7,33.8,8.2c9.6,5.4,17.5,13.3,22.9,22.9
	c5.6,9.8,8.3,21.1,8.3,34v104.7h-32.7v-99.1c0-13.1-3.7-23.4-11-30.9c-7.3-7.5-17.5-11.3-30.6-11.3c-8.2-0.1-16.2,1.8-23.5,5.6
	c-7.1,3.8-13,9.3-17.3,16v119.7H538z"/>
<path class="st0" d="M783,238.4c-15.4,0.2-30.6-3.8-44-11.5c-13-7.4-23.8-18.1-31.2-31.1c-7.6-13.1-11.5-27.7-11.4-43.8
	c0-16.1,3.8-30.8,11.4-43.8C723.3,81.5,752,65.1,783,65.4c16.4,0,31.1,3.9,44.2,11.6c12.9,7.5,23.6,18.3,31.1,31.2
	c7.6,13.1,11.4,27.7,11.4,43.8s-3.8,30.7-11.4,43.8c-7.5,12.9-18.2,23.6-31.1,31.1C814.1,234.6,799.4,238.4,783,238.4z M783,209.6
	c9.8,0.1,19.4-2.5,27.8-7.7c8.3-5.1,15.1-12.2,19.7-20.8c4.9-9,7.4-19.2,7.2-29.4c0.1-10.1-2.4-20.1-7.4-28.9
	c-4.7-8.4-11.5-15.6-19.6-20.8c-16.9-10.5-38.3-10.5-55.3,0c-8.1,5.2-14.9,12.3-19.6,20.8c-5,8.8-7.5,18.8-7.4,28.9
	c-0.2,10.3,2.3,20.4,7.2,29.4c4.6,8.5,11.4,15.7,19.6,20.8C763.6,207.1,773.2,209.8,783,209.6z"/>
<path class="st0" d="M1007.7,181.2c-4.6,8.5-11.4,15.7-19.6,20.8c-17.1,10.2-38.5,10.2-55.6,0c-8.2-5.1-15-12.2-19.6-20.8
	c-4.9-9-7.3-19.2-7.2-29.4c-0.1-10.1,2.4-20.1,7.4-28.9c4.7-8.4,11.5-15.6,19.6-20.8c7.7-4.9,16.5-7.6,25.6-7.8c0.6,0,1-0.4,1-1
	V66.4c0-0.6-0.4-1-1-1c-14.7,0.2-29.2,4.1-41.9,11.6c-13,7.5-23.7,18.3-31.2,31.2c-7.6,13.1-11.4,27.7-11.4,43.8s3.8,30.7,11.4,43.8
	c7.5,12.9,18.3,23.7,31.2,31.1c13.4,7.7,28.6,11.6,44,11.5c16.4,0,31.1-3.8,44.2-11.5c25.4-14.7,41.4-41.4,42.4-70.7
	c0-1.4-1-2.5-2.4-2.5c0,0-0.1,0-0.1,0h-27.2c-1.3,0-2.4,1-2.4,2.3C1014.3,164.8,1011.9,173.4,1007.7,181.2z"/>
<path class="st1" d="M1054.6,142.4c0.2,0,0.3-0.1,0.3-0.3c0-1,0-2,0-3.1c0-16.3-3.7-31-11.2-44.1c-7.2-12.9-17.5-23.7-29.9-31.7
	c-12.5-8-26.5-12-42.1-12H970c-0.2,0-0.3,0.1-0.3,0.3c0,0,0,0,0,0c0,5.4,0.1,85.1,0.1,90.5c0,0.2,0.1,0.3,0.3,0.3c0,0,0,0,0,0
	L1054.6,142.4z"/>
</svg>
