<svg xmlns="http://www.w3.org/2000/svg" id="Layer_1" data-name="Layer 1" viewBox="0 0 136.5 163.82"><defs><style>.cls-1{fill:#fff;}.cls-2{fill:#1b181c;}.cls-3{fill:#fbc42c;}</style></defs><title>Trick or Treat</title><path class="cls-1" d="M57.34,11.51q2.19,72,3.07,144.07a1.61,1.61,0,0,0,1.82,1.58,30.89,30.89,0,0,1,6.92.14,1.62,1.62,0,0,0,1.77-1.79c-5.39-47.8-5.45-96.74-1.81-144.71a1.61,1.61,0,0,0-1.73-1.73c-2.81.22-5.75.57-8.56.78A1.6,1.6,0,0,0,57.34,11.51Z"></path><path class="cls-2" d="M69.32,157.7h-.21a30.91,30.91,0,0,0-6.83-.14,2,2,0,0,1-1.57-.47,2,2,0,0,1-.7-1.5c-.58-47.81-1.61-96.28-3.07-144.06a2,2,0,0,1,1.85-2.07c1.45-.11,3-.26,4.44-.4s2.76-.27,4.12-.38a2,2,0,0,1,2.16,2.16c-3.87,51-3.27,99.64,1.8,144.64a2,2,0,0,1-2,2.23Zm-4.7-1.09c1.49,0,3.06.14,4.58.29a1.2,1.2,0,0,0,1-.35,1.21,1.21,0,0,0,.34-1c-5.07-45-5.68-93.76-1.81-144.79a1.21,1.21,0,0,0-1.3-1.3c-1.35.1-2.75.24-4.1.37s-3,.3-4.46.41a1.2,1.2,0,0,0-1.12,1.24c1.46,47.79,2.5,96.27,3.08,144.08a1.21,1.21,0,0,0,1.37,1.19A19.15,19.15,0,0,1,64.62,156.61Z"></path><path class="cls-3" d="M9.41,69.1c1.64-.69,6.24-.55,7.35-.66Q35.36,66.54,54,65.08t37.3-2.45c3.48-.19,36,.1,36.48-1.52-.64,2.06-1.47,5-3.19,6.32.78-.35,2.19.71,2.71,1.38a2,2,0,0,1,0,2.38,7.77,7.77,0,0,1-1.94,1.9c.82.35,1.64,1,2.46,1.41-.14,5.86-.22,12.08-.36,18l-3.16.35c.94.94,1.88,2.23,2.82,3.17.29.3,0,.86-.35.69-37.93,2-75,6.16-112.21,13.92-.36-1.64-1.17-3.11-1.52-4.75l5.3-6c-1.88,0-4.13-.37-6-.37-.78-4.87-1-9.82-1.38-14.75-.27-4,.1-8.41-.87-12.14-.27-1-1.82-2-1.13-3.13A1,1,0,0,1,9.41,69.1Z"></path><path class="cls-2" d="M14.2,111.05l-.08-.39a15.54,15.54,0,0,0-.75-2.31,17.21,17.21,0,0,1-.77-2.43l0-.2.13-.15,2.65-3,2.08-2.34c-.71,0-1.45-.1-2.17-.16-1-.09-2-.19-3-.19h-.34l0-.33c-.7-4.35-1-8.81-1.28-13.12l-.11-1.67c-.09-1.32-.11-2.69-.13-4a34.57,34.57,0,0,0-.73-8,3.5,3.5,0,0,0-.55-1c-.5-.68-1.11-1.53-.53-2.47a1.37,1.37,0,0,1,.7-.53h0c1.26-.53,4-.59,6-.63.66,0,1.23,0,1.51-.06C29.06,66.78,41.59,65.65,54,64.68s24.92-1.79,37.31-2.45c.85,0,3.31-.06,6.73-.09,8.44,0,28.21-.19,29.44-1.23a.16.16,0,0,0,0,.08l.76.24-.11.37a15.69,15.69,0,0,1-2.5,5.47,5,5,0,0,1,2.07,1.5,2.37,2.37,0,0,1,0,2.87l-.12.15A11.44,11.44,0,0,1,126.08,73c.23.13.45.27.67.42a8.51,8.51,0,0,0,1.18.67l.25.11v.27c-.07,2.93-.13,5.95-.18,9s-.11,6-.18,9v.35l-2.71.3c.29.33.59.68.87,1,.46.54.93,1.1,1.39,1.56a.88.88,0,0,1,.09,1.09.71.71,0,0,1-.78.28C85.4,99.29,48.74,103.84,14.59,111Zm-.78-5.11a17.65,17.65,0,0,0,.7,2.13,20.34,20.34,0,0,1,.69,2C48.91,103,85.52,98.48,126.7,96.26h.08c-.48-.48-1-1-1.43-1.6A19.61,19.61,0,0,0,124,93.09l-.59-.59,3.64-.41c.07-2.82.12-5.72.17-8.62s.11-5.87.18-8.72c-.36-.18-.71-.41-1.05-.62a8.55,8.55,0,0,0-1.17-.68l-.79-.33.77-.39a6.74,6.74,0,0,0,1.69-1.65l.12-.15a1.56,1.56,0,0,0,0-1.87c-.54-.71-1.77-1.48-2.23-1.27l-3.21,1.46,2.8-2.14c1.4-1.06,2.2-3.4,2.79-5.27-2.35.62-9.49,1-29.13,1.1-3.27,0-5.86,0-6.69.09-12.38.66-24.92,1.48-37.29,2.45S29.14,67.57,16.8,68.84c-.31,0-.87,0-1.57.06-1.81,0-4.54.09-5.66.56h0c-.25.11-.32.19-.33.22-.29.46,0,.9.49,1.59a4.07,4.07,0,0,1,.69,1.23,35.86,35.86,0,0,1,.75,8.24c0,1.32,0,2.68.13,4l.11,1.68c.28,4.18.56,8.51,1.22,12.71.86,0,1.79.1,2.69.18s2.05.19,3,.19h.89l-.59.66-2.65,3Z"></path><path class="cls-3" d="M15.71,21.88c33.75-2.78,70.41-6.33,104.17-9.11A1.23,1.23,0,0,1,121.21,14c0,9.05.32,18.33.36,27.38a1.24,1.24,0,0,1-.91,1.19l-1.84.56a1.24,1.24,0,0,0-.52,2.06,5.75,5.75,0,0,0,2.78,1.53,1.23,1.23,0,0,1,.9,1.51c0,.16-.08.33-.13.5a1.23,1.23,0,0,1-1.24.93c-34.55-1.18-69.26,1.93-102.7,10.66A1.23,1.23,0,0,1,16.37,59c.27-2.19.51-4.47.79-6.65a1.22,1.22,0,0,1,1-1.06,4.19,4.19,0,0,0,2.8-1.7,1.23,1.23,0,0,0-.81-2,4,4,0,0,1-1.91-.81,4.77,4.77,0,0,1-1.16-3.27c-.58-8-1.82-10.45-.43-12.21a1.24,1.24,0,0,0-.78-2h0a1.23,1.23,0,0,1-1-1.14c-.11-1.58-.13-3.39-.23-5A1.22,1.22,0,0,1,15.71,21.88Z"></path><path class="cls-2" d="M17.59,60.76A1.64,1.64,0,0,1,16,58.92c.12-1,.23-2,.35-3,.14-1.24.29-2.48.44-3.7a1.61,1.61,0,0,1,1.38-1.4,3.89,3.89,0,0,0,2.53-1.54.84.84,0,0,0,.11-.82.86.86,0,0,0-.66-.52A4.26,4.26,0,0,1,18,47.08a5.09,5.09,0,0,1-1.29-3.53c-.21-2.83-.49-4.93-.72-6.63-.41-3.06-.62-4.6.38-5.86a.81.81,0,0,0,.12-.82.82.82,0,0,0-.65-.53h0a1.65,1.65,0,0,1-1.39-1.51c-.05-.83-.09-1.72-.12-2.59s-.06-1.63-.11-2.4a1.63,1.63,0,0,1,1.5-1.73h0c16.89-1.39,34.8-3,52.13-4.56s35.17-3.16,52-4.54a1.61,1.61,0,0,1,1.24.42,1.65,1.65,0,0,1,.53,1.2c0,4.46.1,9.06.18,13.51s.16,9.28.17,13.86A1.63,1.63,0,0,1,120.77,43c-.39.1-.79.23-1.19.35l-.65.2a.81.81,0,0,0-.57.59.87.87,0,0,0,.22.81,5.33,5.33,0,0,0,2.59,1.42,1.56,1.56,0,0,1,1,.72,1.62,1.62,0,0,1,.2,1.27l-.13.51a1.64,1.64,0,0,1-1.64,1.23C84.33,48.82,49.82,52.4,18,60.7A1.52,1.52,0,0,1,17.59,60.76ZM15.74,22.27a.84.84,0,0,0-.77.89c0,.78.09,1.61.12,2.42s.06,1.75.12,2.56a.84.84,0,0,0,.71.78h0a1.64,1.64,0,0,1,1,2.63c-.79,1-.61,2.34-.22,5.27.23,1.7.52,3.82.72,6.68a4.44,4.44,0,0,0,1,3,3.55,3.55,0,0,0,1.7.71,1.64,1.64,0,0,1,1.27,1,1.61,1.61,0,0,1-.2,1.6,4.65,4.65,0,0,1-3.07,1.86.82.82,0,0,0-.69.71c-.15,1.21-.29,2.45-.44,3.69-.11,1-.23,2-.35,3a.84.84,0,0,0,1,.91C49.69,51.61,84.28,48,120.63,49.26a.82.82,0,0,0,.84-.63l.12-.5a.84.84,0,0,0-.1-.66.74.74,0,0,0-.5-.36,6.17,6.17,0,0,1-3-1.64,1.65,1.65,0,0,1,.69-2.73l.65-.19c.4-.13.81-.25,1.21-.36a.84.84,0,0,0,.61-.81c0-4.58-.1-9.3-.18-13.86s-.16-9-.18-13.52a.84.84,0,0,0-.9-.83c-16.86,1.39-34.74,3-52,4.55s-35.24,3.16-52.14,4.55Z"></path><path class="cls-1" d="M47.47,50,89,45.44q.33,11.93.68,23.87c-14.07,1-28.75,1.55-42.83,2.58C47.35,64.59,47,57.28,47.47,50Z"></path><path class="cls-2" d="M46.46,72.32l0-.46c.23-3.63.26-7.34.29-10.93s.06-7.31.29-11l0-.34L89.41,45l.71,24.69-.38,0c-7,.51-14.35.91-21.42,1.29S54,71.77,46.91,72.29Zm1.39-22c-.22,3.53-.25,7.12-.28,10.6s0,7-.26,10.52c6.9-.5,14-.88,21-1.26s14.1-.76,21-1.26l-.66-23.06Z"></path><path d="M40.17,27.66A6.35,6.35,0,0,1,41,30.09c0,.6,0,.89,0,1.41,0,.29.14.62.12,1a1.71,1.71,0,0,1-.25.93,1.38,1.38,0,0,1-.86.44,2.28,2.28,0,0,1-1,0c-.26-.06-.49-.13-.71-.2a1.77,1.77,0,0,0-1.29,0,1.17,1.17,0,0,0-.65.68,2.7,2.7,0,0,0-.09,1,19,19,0,0,0,.35,2.33,3.48,3.48,0,0,1,.07.77c0,.19,0,.34,0,.47a2.51,2.51,0,0,0,.1.86,2.28,2.28,0,0,1,.08.82,1.46,1.46,0,0,1-.16.51,1.22,1.22,0,0,1-.32.36,2.86,2.86,0,0,0-.36.3l-.34.31-.38.36c.09,1.42.16,2.7.14,3.62s0,1.67,0,2.25a2.36,2.36,0,0,1-.23,1.33,3.07,3.07,0,0,1-1.65,1.18.94.94,0,0,1-1.22-.45,5.1,5.1,0,0,1-.55-2.36,19.91,19.91,0,0,0-.27-2.57A9.68,9.68,0,0,0,31.15,44q-.21-.6-.39-1.05a7.76,7.76,0,0,1-.32-1.2,2.11,2.11,0,0,1,.18-1.38,3.11,3.11,0,0,1-.75-.77,1.79,1.79,0,0,1,0-1.17A5.6,5.6,0,0,0,30,36.94a5,5,0,0,0-.18-1.22c-.22-.82-.59-1.25-1.17-1.29a2.62,2.62,0,0,0-1.38.31,8.44,8.44,0,0,1-1.13.47,1.45,1.45,0,0,1-.85,0c-.3-.09-.46-.22-.47-.39a1,1,0,0,1,.09-.52c.08-.19.15-.37.23-.53a.45.45,0,0,0-.11-.49A.88.88,0,0,0,24.5,33a1.33,1.33,0,0,1-.55-.26c-.43-.31-.54-1-.33-2.12s.34-2.16.43-2.89.14-1.24.18-1.55a2.14,2.14,0,0,1,.23-.8,1.62,1.62,0,0,1,.54-.57,3.79,3.79,0,0,1,2.37-.43c4.66.35,7.36.88,7.86.79l.53-.1C37,24.69,38.89,25.32,40.17,27.66Z"></path><path d="M50.38,40.87a4.5,4.5,0,0,0-.24,1c-.08.56-.61,1-.8,1.23a2.67,2.67,0,0,0,.17,1.8.93.93,0,0,1-.63.64,1.52,1.52,0,0,1-1.56-.07c-.43-.38-.73-.57-.93-.56a.62.62,0,0,0-.23,0,1.55,1.55,0,0,1-.38,0c-.15,0-.23-.16-.21-.42a1.79,1.79,0,0,0-.06-.62c0-.15-.1-.31-.16-.48A2.82,2.82,0,0,1,45.23,42a6.68,6.68,0,0,1,.22-.86c.08-.25.18-.5.26-.72a2.67,2.67,0,0,0,.08-1.9c-.23-.6-.44-1-.54-1.25a5.92,5.92,0,0,1-.42-1.32,1.09,1.09,0,0,1,0-.56L45,35a1.71,1.71,0,0,0,.07-1.08,10,10,0,0,1-.18-1.1,8.94,8.94,0,0,0-.08-1c-.08-.37-.17-.82-.3-1.34s-.29-1.07-.47-1.6c-.6-1.74-1.22-2.63-.87-2.78l.23-.09a1.39,1.39,0,0,0,.28-.16.72.72,0,0,0,.22-.2.5.5,0,0,1,.23-.16,2.3,2.3,0,0,1,1.17.09l1.29.27.71.11c.23,0,.47,0,.71,0l1.08,0,1.57,0c.59,0,1.2,0,1.84.05a11.23,11.23,0,0,1,5.54,1.55,2.35,2.35,0,0,1,1,1.19,5.65,5.65,0,0,1,.16,1c0,.32.07.67.12,1a2.56,2.56,0,0,1-.14,1c-.1.38-.15.68-.21.85s-.11.33-.17.48a2.09,2.09,0,0,0-.06,1,3.31,3.31,0,0,1,0,1.37c-.09.34-.19.69-.29,1-.3.86-.72,1.34-1.14,1.46l-.58.17a.47.47,0,0,0-.28.29c0,.09,0,.21.15.32a1.37,1.37,0,0,1,.41.47.8.8,0,0,0,.3.37.82.82,0,0,0,.3.07,1.21,1.21,0,0,1,.55.09c.12.13.22.24.28.32s0,.22-.07.41a1.21,1.21,0,0,0-.15.57,3.3,3.3,0,0,0,.08.6,3.06,3.06,0,0,1,.07.55.76.76,0,0,0,0,.33,3.84,3.84,0,0,0,.37.56.94.94,0,0,1,.06,1c-.16.27-.31.43-.48.48a1.48,1.48,0,0,1-.59,0,3.25,3.25,0,0,1-.6-.19l-.41-.15-.31,0a2.08,2.08,0,0,1-.4,0,2.88,2.88,0,0,1-1.73-1.51,1.24,1.24,0,0,0-.8-.73c-.54-.14-.8-.35-.74-.64a5.33,5.33,0,0,1,.19-.58c.16-.46.07-.82-.36-1a2.47,2.47,0,0,0-.64-.09,1.79,1.79,0,0,0-.72.23A2,2,0,0,0,50.38,40.87Zm2.22-5.32c.25-.28.5-.53.75-.76a2.28,2.28,0,0,0,.59-.85,10.11,10.11,0,0,0,.37-1,12,12,0,0,0,.32-1.39,1.47,1.47,0,0,0-.07-.74c-.07-.12-.31-.17-.71-.15a3.76,3.76,0,0,1-1.2-.11c-.4-.1-.65-.25-.7-.41-.1-.35-.31-.52-.61-.39A1.23,1.23,0,0,0,51,30a.9.9,0,0,0-.13.51,4.84,4.84,0,0,0,0,1.22c.05.26.06.46.08.56s0,.22,0,.35,0,.29.05.47.08.47.17.89a11.26,11.26,0,0,1,.21,1.13,3.16,3.16,0,0,0,.27,1A1.5,1.5,0,0,0,52.6,35.55Z"></path><path d="M68.88,39.54a.75.75,0,0,0,.77.34.85.85,0,0,1,.59.06,2.13,2.13,0,0,1,.38,1.15,2.48,2.48,0,0,0,.27.8l.29.48a1.15,1.15,0,0,1,.14.78.9.9,0,0,1-.57.5l-.72.24a1.77,1.77,0,0,0-.54.29,1.4,1.4,0,0,1-.88.28h-.78a1.13,1.13,0,0,0-.49.09,1,1,0,0,1-.44.1l-.47-.06a5.28,5.28,0,0,0-1.27-.12,3.79,3.79,0,0,1-2.24-1.52,2.31,2.31,0,0,1-.52-1.06.8.8,0,0,1,.11-.66A.86.86,0,0,1,62.9,41a3.15,3.15,0,0,1,.44-.14c.13,0,.27-.07.36-.11s.19-.23.21-.51a5.61,5.61,0,0,1,.13-.77A5.22,5.22,0,0,1,64.59,38a1.14,1.14,0,0,0,.06-1.28A5.53,5.53,0,0,1,64.31,34c0-.82,0-1.47,0-1.9a3.36,3.36,0,0,1,.29-1.66,5.73,5.73,0,0,0,.2-.55.88.88,0,0,0,0-.3c0-.13-.24-.17-.59-.14a1.38,1.38,0,0,1-.95-.22,1.15,1.15,0,0,1-.41-1,2.84,2.84,0,0,0-.4-1.42,2.68,2.68,0,0,1-.46-1,1.34,1.34,0,0,0-.22-.68c-.12-.18-.23-.34-.31-.49-.15-.34,0-.58.53-.72a8.3,8.3,0,0,1,1.58-.28c.53,0,1.05-.07,1.54-.06a17.11,17.11,0,0,0,2.4-.11,3.93,3.93,0,0,0,.81-.25l.85-.32a3,3,0,0,1,1.73-.22,2.13,2.13,0,0,1,1.08.49,2.25,2.25,0,0,1,.52.75,3.5,3.5,0,0,1,.25.87,5.3,5.3,0,0,0,.26,1,2,2,0,0,1,0,1.8,2.17,2.17,0,0,1-.7.87,2,2,0,0,1-.53.23l-.48.1a.91.91,0,0,0-.47.27,4.6,4.6,0,0,0-1.12,2.63c-.28,1.88-.16,3.18-.4,5C69.22,37.7,69,38.57,68.88,39.54Z"></path><path d="M87.91,21.54a3,3,0,0,1,2.08.89l.34.38a1.27,1.27,0,0,1,.25.42,2.74,2.74,0,0,1,.18,1.49,6.27,6.27,0,0,0-.05,1.52c.05.37.09.72.11,1.05.06.57-.4,1.23-1.15,2.15A4.81,4.81,0,0,1,87.85,31l-.7.21a4.42,4.42,0,0,1-1.64.26c-.42,0-.68-.13-.79-.29A1.57,1.57,0,0,1,85,29.45a2,2,0,0,0,.26-.61c.07-.26-.05-.42-.35-.46s-.25-.08-.27-.17,0-.16,0-.23a.32.32,0,0,0,0-.13s-.15,0-.36.15l-.37.21a.55.55,0,0,1-.2,0,.48.48,0,0,0-.36.06,3.52,3.52,0,0,0-.5.32,4.31,4.31,0,0,0-1.47,2.89c0,.41-.08.8-.09,1.16A11.28,11.28,0,0,1,81,34.39a3.45,3.45,0,0,1-.44.88c-.2.3-.38.58-.53.84A1.76,1.76,0,0,0,79.87,38a5.92,5.92,0,0,0,.89,1.27,1.2,1.2,0,0,0,.88.22.88.88,0,0,0,.7-.43c.14-.25.28-.51.41-.78a5.14,5.14,0,0,1,.47-.76,1,1,0,0,1,.62-.4,3.52,3.52,0,0,1,.9,0l.75,0a1,1,0,0,1,.51.17c.21.12.32.38.39.83a6.26,6.26,0,0,0,.26,1.09.89.89,0,0,1-.05.75,1.08,1.08,0,0,0-.18.62,1.58,1.58,0,0,0,.12.53,2.89,2.89,0,0,1,.33,1c0,.22,0,.4,0,.53s-.32.23-.93.26-1,.28-.89.73-.06.65-.56.62a4.08,4.08,0,0,1-1.71-.56,3.39,3.39,0,0,0-1.48-.49,2.6,2.6,0,0,1-.5-.1,4.29,4.29,0,0,0-.54-.11,2.84,2.84,0,0,1-.68-.19,6.19,6.19,0,0,1-1.91-1.06c-.38-.31-.68-.56-.94-.76a7.29,7.29,0,0,1-.67-.56,1.64,1.64,0,0,1-.66-1.13c-.06-1-.16-1.52-.58-1.73q-.36-.14-.36-.24a1.42,1.42,0,0,0-.12-.41c-.11-.27,0-.58.23-1a2.81,2.81,0,0,0,.34-1.1c0-.29,0-.6,0-.93a4.15,4.15,0,0,1,.29-1.74,3.1,3.1,0,0,0,.37-1.17,5.75,5.75,0,0,1,.27-1.12,9.26,9.26,0,0,0,.42-1.11c.13-.5.28-1.07.42-1.71.37-1.61.72-3,1.66-3.79,1.4-1.19,2.3-1.76,2.78-1.8a5,5,0,0,1,.57,0,1.46,1.46,0,0,0,.61-.08,1.09,1.09,0,0,0,.42-.27,2.42,2.42,0,0,0,.27-.36,1,1,0,0,1,1.49-.34c.69.4,1.16.74,1.47.88A4,4,0,0,0,87.91,21.54Z"></path><path d="M94.74,25.64l.1-.66a2.59,2.59,0,0,0-.09-.53,5.09,5.09,0,0,1-.13-.83c0-.26,0-.48,0-.66v-.51a1.64,1.64,0,0,0-.17-.64,1,1,0,0,1,0-.8,1.49,1.49,0,0,0,.11-.74,2.16,2.16,0,0,1,.06-.71,1.08,1.08,0,0,1,.61-.65,1,1,0,0,1,.89-.13c.24.1.51.23.79.37A3.28,3.28,0,0,0,99,19.6a2.79,2.79,0,0,1,1.36,0,1.48,1.48,0,0,1,.62.47,2.12,2.12,0,0,1,.32.66c.07.24.15.47.24.7a5.68,5.68,0,0,1,.22.92,2,2,0,0,1-.27,1.2,2.29,2.29,0,0,0-.37,1,7,7,0,0,0,.06.89,3.64,3.64,0,0,1-.48,2.32.69.69,0,0,0-.15.21.6.6,0,0,1-.15.18,9,9,0,0,0,2.28-1.56,5.14,5.14,0,0,0,.82-1.3,10.08,10.08,0,0,1,.42-.94l.19-.31a1.6,1.6,0,0,0,.31-.78,4,4,0,0,1,.78-2,4.25,4.25,0,0,1,.16-2A1.85,1.85,0,0,1,106.86,18a2.45,2.45,0,0,1,1.73,0,4.37,4.37,0,0,1,1.37-.24,1.71,1.71,0,0,1,.92.35c.58.35.74,1.08.49,2.29a2.45,2.45,0,0,0-.08.72,6.3,6.3,0,0,1-.05.75,3.13,3.13,0,0,1-.88,1.64,4.59,4.59,0,0,0-1.48,3.27,2,2,0,0,1-.42,1.33,1.56,1.56,0,0,1-.92.51,2.15,2.15,0,0,0-1,.41,6.87,6.87,0,0,0-.86.77,3.89,3.89,0,0,0-1.07,1.61,1.43,1.43,0,0,0,.28,1l.85,1.18a13.29,13.29,0,0,0,1,1.19,9.61,9.61,0,0,1,2.73,4.52,2.23,2.23,0,0,0,.62,1,1,1,0,0,1,.25,1.12,1.08,1.08,0,0,1-.76.67c-1.25.34-2.41-.18-3.42-1.56a7.92,7.92,0,0,0-3.52-2.48,2.25,2.25,0,0,1-1-.73l-.51-.67a2.07,2.07,0,0,0-.48-.45l-.59-.39a1,1,0,0,0-.67-.16c-.4,0-.55.31-.47.81.07.28.1.43.17.72.37,1.47.46,2.41,0,2.67a.6.6,0,0,0-.32.58,5.71,5.71,0,0,0,.09.82,3.91,3.91,0,0,1,0,.82c0,.24-.19.4-.57.46A2.93,2.93,0,0,1,96,41.85a5.93,5.93,0,0,1-1.75-2.18c-.36-.83-.51-1.34-.62-1.55a2.34,2.34,0,0,0-.34-.52L93,37.22a2.73,2.73,0,0,1-.38-.46,1.94,1.94,0,0,1-.37-1.49A6.79,6.79,0,0,1,92.5,34a2.48,2.48,0,0,0,.13-.88,2.17,2.17,0,0,1,.19-1,2.71,2.71,0,0,0,.27-.82,2.42,2.42,0,0,1,.22-.69c.11-.21.22-.44.34-.69a7.45,7.45,0,0,0,.57-1.42c.09-.39.17-.7.23-.9s.11-.35.16-.48.07-.27.1-.4C94.73,26.31,94.74,26.09,94.74,25.64Z"></path><path d="M21.18,79.22c.65,0,1.22,0,1.72-.08l2.23-.2a12.38,12.38,0,0,0,3.34-.57,5.66,5.66,0,0,1,3.16-.6,7.37,7.37,0,0,0,1.31,0,3.19,3.19,0,0,0,1.26-.5,3.19,3.19,0,0,1,1.63-.41,6.51,6.51,0,0,1,1.4.16,3.07,3.07,0,0,1,1.14.62,3.24,3.24,0,0,1,.8,1,2.49,2.49,0,0,1,.29.89c.16.73.17,1.18.26,1.39l.29.62a.76.76,0,0,1,.09.62,2.21,2.21,0,0,1-1.49,1.49,1.39,1.39,0,0,1-1.38-.23,4.69,4.69,0,0,1-.65-.81,1.75,1.75,0,0,0-.6-.52,1.13,1.13,0,0,0-.87-.09.67.67,0,0,0-.59.55,5.45,5.45,0,0,0-.18,1.58c0,.79.14,1.81.29,2.91s.25,2.07.31,2.82.1,1.45.13,2.06A5.35,5.35,0,0,1,35,93.3a4.71,4.71,0,0,1-1,1.83,1.71,1.71,0,0,0-.38.83,4.56,4.56,0,0,0-.05,1c0,.35.05.7.1,1.06a7.75,7.75,0,0,1,0,1.37,4.3,4.3,0,0,1-1.53,3.15,5,5,0,0,0-.95,1.21,6,6,0,0,1-.65.93A.85.85,0,0,1,30,105a.48.48,0,0,1-.46-.09,2.38,2.38,0,0,1-.27-.34c-.17-.37-.43-.66-.69-.68S28,103.59,28,103a15.06,15.06,0,0,1-.07-1.72c0-.52,0-1.16,0-1.89a2.74,2.74,0,0,0-.43-1.64,1.87,1.87,0,0,0-.71-.65c-.19-.07-.3-.32-.33-.67a2.22,2.22,0,0,1,.14-1c.12-.29.27-.5.41-.82a9.75,9.75,0,0,0,.39-4.08c-.19-2.87-.39-4.81-.51-5.52-.25-1.44-.63-1.67-1.42-1.6a1.38,1.38,0,0,0-.87.3,3.46,3.46,0,0,0-.55.74c-.42.83-1.23,1.23-2.55.86a1.57,1.57,0,0,1-.94-.72,2.65,2.65,0,0,1-.27-.88c0-.24,0-.46-.06-.7a1,1,0,0,0-.36-.67c-.22-.2-.42-.4-.61-.59a.55.55,0,0,1-.21-.57,1.09,1.09,0,0,1,.4-.56c.21-.19.27-.37.2-.55s0-.36.27-.55A2.24,2.24,0,0,1,21.18,79.22Z"></path><path d="M52.87,75.84l1.23-.08a7.27,7.27,0,0,1,2.24.23,12.62,12.62,0,0,1,1.35.49c.32.15.62.3.89.46a8.42,8.42,0,0,0,1,.47,1.11,1.11,0,0,1,.68.56.89.89,0,0,0,.46.51.7.7,0,0,1,.39.6,2.92,2.92,0,0,1-.05.79,1.39,1.39,0,0,1-.26.59,1.73,1.73,0,0,0-.28.45.43.43,0,0,0,0,.4c.07.13,0,.47-.25,1.26s-.45,1.73-.74,2.71a11.72,11.72,0,0,1-1,2.51,5.63,5.63,0,0,1-3.39,2.54c0,.21,0,.38.09.59s.08.43.13.67a6,6,0,0,1,.06,1.4,2.06,2.06,0,0,0,0,.69.85.85,0,0,0,.11.34.44.44,0,0,0,.21.17,3.74,3.74,0,0,1,.4.22,1.28,1.28,0,0,1,.47.54,4.89,4.89,0,0,1,.34.82c.21.66.36,1.06.25,1.22a.76.76,0,0,1-.43.33,5.25,5.25,0,0,1-.62.12,2,2,0,0,1-1.25-.17,1.52,1.52,0,0,1-.59-.5,2.51,2.51,0,0,0-.32-.46.9.9,0,0,0-.43-.25.66.66,0,0,1-.44-.38,1,1,0,0,0-.35-.45,1.13,1.13,0,0,0-.71-.06,1.26,1.26,0,0,1-1.43-.87,2.47,2.47,0,0,1-.17-.62c0-.26-.09-.5-.13-.72-.07-.55-.19-.81-.43-.84a.85.85,0,0,0-.59.12,1.27,1.27,0,0,0-.4.4,2.06,2.06,0,0,0-.23.57,2.19,2.19,0,0,0,0,.68,1.81,1.81,0,0,1,0,.63,2.19,2.19,0,0,1-.22.46c-.09.12-.19.23-.28.34a.84.84,0,0,0-.32.72c0,.34,0,.63,0,.88,0,.61-.1,1-.31,1.19a2.57,2.57,0,0,1-.7.46,4.4,4.4,0,0,1-.81.22c-.71.1-1.19.08-1.42-.13a1.51,1.51,0,0,1-.4-.51,1.25,1.25,0,0,1-.08-.42c0-.14,0-.3,0-.47a4,4,0,0,0,0-.6c0-.22-.07-.51-.14-.88a4.05,4.05,0,0,1,0-1.32c0-.36.08-.54.15-.88a1.48,1.48,0,0,1,.38-.49,1.2,1.2,0,0,0,.4-.68c0-.22-.06-.33-.26-.34s-.28-.07-.24-.15.19-.24.37-.54a2.71,2.71,0,0,0,.29-1.5c0-.75,0-1.55-.06-2.25,0-1.51-.33-2.4-.69-2.56a.91.91,0,0,1-.63-.64,2.23,2.23,0,0,1,0-.89,10.32,10.32,0,0,1,.25-1.08,9.31,9.31,0,0,1,.37-.91c.08-.24.15-.47.2-.69s.07-.37.09-.46a.49.49,0,0,0,0-.24,1,1,0,0,1-.08-.22,1.56,1.56,0,0,1-.18-.6,1.07,1.07,0,0,0-.24-.72,1.36,1.36,0,0,1-.26-.68,6.14,6.14,0,0,1-.1-.68q0-.2.36-.36a1.81,1.81,0,0,0,.62-.38,2.33,2.33,0,0,0,.39-.46,1.66,1.66,0,0,0,.22-.41.56.56,0,0,1,.37-.31,4.12,4.12,0,0,1,1.67-.22,7.74,7.74,0,0,1,1.15.17c.28.07.59.13.94.2a7.22,7.22,0,0,0,1,.14c.32,0,.59,0,.81,0a4.71,4.71,0,0,1,1.23.1A1.77,1.77,0,0,0,52.87,75.84Zm-1.81,6.83c0,1.29,0,2.2.07,3.82a6.46,6.46,0,0,1-.07.78c-.05.25-.09.48-.13.67-.07.4.06.65.34.7a.63.63,0,0,0,.62-.24,3.27,3.27,0,0,0,.5-.87c.36-.72.48-1.2.39-1.4a.81.81,0,0,1-.14-.78c.1-.22.3-.66.63-1.28s.57-1.09.74-1.46a2.3,2.3,0,0,0,.25-1.06,1.75,1.75,0,0,1,.06-.55c0-.08,0-.13.07-.21s0-.21-.23-.3a1.33,1.33,0,0,0-.39-.15h-.19a2.18,2.18,0,0,1-.68,0,2.08,2.08,0,0,0-.59-.06,2,2,0,0,0-.67.22.9.9,0,0,0-.45.39,2.35,2.35,0,0,0-.1.42C51.06,81.76,51.09,82.36,51.06,82.67Z"></path><path d="M62.88,91.16A8.16,8.16,0,0,1,63.35,90c.11-.22.22-.47.32-.72a4.09,4.09,0,0,0,.22-1.13c.06-.84.11-1.56.19-2s.14-.83.17-1.11a5.07,5.07,0,0,0,0-.76,9.87,9.87,0,0,0-.3-1.52A2.91,2.91,0,0,1,64,81a2.51,2.51,0,0,1,.91-1.07c.38-.28.54-.57.46-.85s-.18-.59-.3-.92-.28-.69-.46-1.07a4.46,4.46,0,0,1-.37-1.14c-.16-.94.43-1.49,2.22-1.61a23.94,23.94,0,0,1,3.05,0,11.12,11.12,0,0,0,1.91,0,6.31,6.31,0,0,0,1.45-.42,4,4,0,0,1,2.72-.15,5,5,0,0,0,.72.18,3,3,0,0,1,.63.17,3.56,3.56,0,0,1,1.88,2A3.48,3.48,0,0,1,79,77c.08.64,0,1.1.1,1.39a1.22,1.22,0,0,1-.09.79,6.88,6.88,0,0,1-.49.76c-.43.6-.85,1-1.27,1.06a.71.71,0,0,1-.71-.27,1.47,1.47,0,0,1-.15-.58,2.71,2.71,0,0,0-.06-.49c0-.12-.25-.16-.64-.12a7.88,7.88,0,0,1-2.21,0,2.54,2.54,0,0,0-.92-.12,3.15,3.15,0,0,0-.85.14,2.27,2.27,0,0,0-1.33.83,5.57,5.57,0,0,0-.65,1.35,8.89,8.89,0,0,0-.32,1.31c-.17,1-.12,1.58.15,1.68a.82.82,0,0,0,.72,0q.33-.19.69-.45a3.89,3.89,0,0,1,2-.88,1,1,0,0,1,1.22.78,2.72,2.72,0,0,1,0,1.67c-.18.55-.35,1-.51,1.52a7.82,7.82,0,0,1-.52,1.18c-.79,1.26-1.62,1.28-2.41.82a6.48,6.48,0,0,0-2.76.56,2.23,2.23,0,0,0-.41.5,1.87,1.87,0,0,0-.31.84c-.1.8.44,1.23,1.42,1.19a5.7,5.7,0,0,0,1.77-.38,3.34,3.34,0,0,0,1.13-.65,1.17,1.17,0,0,1,.64-.41l.62-.13.53-.09a2.14,2.14,0,0,1,.51,0,.67.67,0,0,1,.65.68,2.22,2.22,0,0,1-.21,1.13,1.84,1.84,0,0,0-.21,1c0,.29.07.5.09.64a1.08,1.08,0,0,1-.13.55,2.12,2.12,0,0,0-.17.56c0,.15-.27.14-.73,0-.83-.27-1.41,0-1.46.79a.66.66,0,0,1-.12.53,1.63,1.63,0,0,1-.93.24,4,4,0,0,1-1.47-.15c-.46-.14-.88-.28-1.26-.43a3.22,3.22,0,0,0-2.26-.18,2.12,2.12,0,0,1-1.68-.42.88.88,0,0,1-.32-.32,6.14,6.14,0,0,1-.33-.53,6.87,6.87,0,0,0-.65-1,.78.78,0,0,1-.24-.55c0-.23,0-.47,0-.72a5.35,5.35,0,0,1,0-.54.77.77,0,0,1,.16-.41A3.44,3.44,0,0,0,62.88,91.16Z"></path><path d="M83.24,95.29a2.31,2.31,0,0,1-.95-.05,3.26,3.26,0,0,1-1.19-.47,3.41,3.41,0,0,1-.86-.83,2.52,2.52,0,0,1-.42-1,5.32,5.32,0,0,1-.06-1c0-.74,0-1.18-.27-1.36-.59-.34-.65-.81,0-2.46.4-1,.84-2.11,1.2-3A35,35,0,0,0,82,81.62a8,8,0,0,1,.78-1.88,3.34,3.34,0,0,1,.67-.82c.21-.18.4-.36.59-.55a1.89,1.89,0,0,0,.53-.9,5.59,5.59,0,0,0,0-2c.06-.39.12-.81.21-1.28a2.43,2.43,0,0,1,.35-1c.4-.35,1.31-.4,2.63-.12a8.11,8.11,0,0,0,2.53.22A11.88,11.88,0,0,1,92,73.22a5,5,0,0,1,1.45.35,5.28,5.28,0,0,1,1.35.71,3.18,3.18,0,0,1,.79.82,2.43,2.43,0,0,1,.36,1.74,11.56,11.56,0,0,1-.45,1.62,2.19,2.19,0,0,0-.19,1.3,7.8,7.8,0,0,1,.19,1.38c0,.37,0,.78,0,1.19s0,.88,0,1.38a14.23,14.23,0,0,0,0,1.7,11.45,11.45,0,0,1,0,1.45,4.67,4.67,0,0,1-.1.81,3,3,0,0,1-.15.52,1.36,1.36,0,0,0,0,.65,1.6,1.6,0,0,1,0,.76,4.61,4.61,0,0,1-.25.71,3.2,3.2,0,0,0-.49,1.62,3.68,3.68,0,0,1,.09,1.29l-.15.62a1.53,1.53,0,0,0,0,.67,1,1,0,0,1-.23.76c-.18.23-.47.29-.91.19a2.89,2.89,0,0,1-1-.42,6,6,0,0,1-.64-.54c-.19-.19-.36-.36-.53-.51a1.13,1.13,0,0,0-.65-.27c-.47,0-.79-.23-.89-.54a1.85,1.85,0,0,1-.11-.8,1.51,1.51,0,0,0-.07-.69A2,2,0,0,0,89,91a2.34,2.34,0,0,0-1.61-.94,2.26,2.26,0,0,0-2.25.8,2,2,0,0,0-.29.69,2.39,2.39,0,0,1-.34.8,5.29,5.29,0,0,1-.5.6q-.25.24-.45.45a.47.47,0,0,0-.1.51C83.66,94.75,83.78,95.18,83.24,95.29Zm4.3-13.35a6.11,6.11,0,0,0-1.17,3.88,1,1,0,0,0,.83.84c.71.08,1.19.06,1.38-.14s.4-.42.64-.66a1.88,1.88,0,0,0,.45-1.15c.06-.54.13-1,.2-1.43a4.88,4.88,0,0,0,0-1.37,4.38,4.38,0,0,1,0-1.49,7.34,7.34,0,0,1,.33-1.21c.27-.69.18-.94-.15-.95a.64.64,0,0,0-.54.22,3.89,3.89,0,0,0-.48.63C88.51,80,88,81.17,87.54,81.94Z"></path><path d="M101.15,73.74c.62.07,1.17.1,1.66.11s1.21,0,2.17.09a12.53,12.53,0,0,0,3.46-.11,4.87,4.87,0,0,1,3.34-.1,3.75,3.75,0,0,0,1.11.27,4.4,4.4,0,0,0,1.58-.32,3.67,3.67,0,0,1,1.81-.14,3.6,3.6,0,0,1,1.06.36,1.81,1.81,0,0,1,.6.8,7.11,7.11,0,0,1,.44,1.15,6.6,6.6,0,0,1,.21,1.06,9.52,9.52,0,0,0,.36,1.73l.41.84a1.43,1.43,0,0,1,.14.85c-.09.71-.78,1.32-2,1.44a2.67,2.67,0,0,1-1.92-.35,6.15,6.15,0,0,1-1-.93c-.26-.3-.42-.54-.6-.77a1,1,0,0,0-.94-.24,1.36,1.36,0,0,0-1,.66c-.26.38-.11.89,0,1.62s.2,1.59.36,2.51.28,1.72.36,2.34.16,1.23.26,1.78.17,1,.21,1.38a1.3,1.3,0,0,1-.61,1.45.69.69,0,0,0-.37.47,1.42,1.42,0,0,0,0,.58c0,.21.09.41.14.61a1.67,1.67,0,0,1,0,.74c-.13.68-.72,1.15-1.78,1.4a2.25,2.25,0,0,0-1,.48,6.49,6.49,0,0,1-.55.46.82.82,0,0,1-.52.06,1.37,1.37,0,0,1-.55-.19l-.4-.3a1.92,1.92,0,0,0-.92-.56,1,1,0,0,1-.82-.59,3.33,3.33,0,0,1-.2-.87c0-.24,0-.55-.09-.91a1.19,1.19,0,0,0-.54-.87,2.94,2.94,0,0,0-.83-.44.57.57,0,0,1-.4-.43,1.14,1.14,0,0,1,0-.66c.06-.21.12-.43.22-.74a11.52,11.52,0,0,0,.44-3.39c0-2.26,0-3.81-.07-4.45-.15-1.25-.52-1.67-1.15-1.7a.85.85,0,0,0-.69.23,5.73,5.73,0,0,0-.47.67,1.43,1.43,0,0,1-2,.49,1,1,0,0,1-.57-.72,3.08,3.08,0,0,1,0-.91c0-.29.34-.58.47-.9a1.2,1.2,0,0,0,.06-.89,5.77,5.77,0,0,0-.34-.81,1.47,1.47,0,0,1-.18-.77,1.58,1.58,0,0,1,.22-.74.85.85,0,0,0,.06-.76A.75.75,0,0,1,99.9,74C100.11,73.78,100.53,73.68,101.15,73.74Z"></path><path class="cls-2" d="M60.37,66.11a6.48,6.48,0,0,1-2.75-.35,5.38,5.38,0,0,1-2-1.28,5.67,5.67,0,0,1-1.25-2,8,8,0,0,1-.53-2.42,7.69,7.69,0,0,1,.25-2.45,6.72,6.72,0,0,1,1.07-2.3,6.47,6.47,0,0,1,2-1.75,6.6,6.6,0,0,1,3-.82A6,6,0,0,1,63,53.2a5.08,5.08,0,0,1,1.91,1.45A6.23,6.23,0,0,1,66,56.75a9.89,9.89,0,0,1,.45,2.38,7.87,7.87,0,0,1-.24,2.54,6,6,0,0,1-1.07,2.17,5.67,5.67,0,0,1-1.94,1.56A7.05,7.05,0,0,1,60.37,66.11Zm-.29-9.55a1.33,1.33,0,0,0-.82.31,2,2,0,0,0-.53.71,3.25,3.25,0,0,0-.28,1,5.37,5.37,0,0,0,0,1.06,5.46,5.46,0,0,0,.19,1.19A4.5,4.5,0,0,0,59,61.84a2.25,2.25,0,0,0,.62.73,1.28,1.28,0,0,0,.86.24,1.15,1.15,0,0,0,.87-.43,2.77,2.77,0,0,0,.47-.94A4.6,4.6,0,0,0,62,60.33a7.55,7.55,0,0,0,0-.94,5.87,5.87,0,0,0-.15-1,3.46,3.46,0,0,0-.36-.93,2.06,2.06,0,0,0-.58-.69A1.24,1.24,0,0,0,60.08,56.56Z"></path><path class="cls-2" d="M81.5,55.2a3.13,3.13,0,0,1-.68,2.17,7.43,7.43,0,0,1-2.08,1.79,12.74,12.74,0,0,1,.91.9,9.07,9.07,0,0,1,.85,1.11,7.17,7.17,0,0,1,.64,1.18,3.27,3.27,0,0,1,.29,1.1,1.47,1.47,0,0,1-.33,1,1.76,1.76,0,0,1-1.32.52,2,2,0,0,1-1.41-.43,5.81,5.81,0,0,1-1.1-1.16A15.8,15.8,0,0,1,76.36,62a8.31,8.31,0,0,0-.78-1.13c-.3.09-.59.18-.88.29l-.88.3c0,.25,0,.6,0,1a6.69,6.69,0,0,1-.2,1.32A3.08,3.08,0,0,1,73,65a1.57,1.57,0,0,1-1.17.56,1.79,1.79,0,0,1-1.34-.38,2.7,2.7,0,0,1-.72-1.06,5.47,5.47,0,0,1-.3-1.27c0-.44-.07-.78-.09-1,0-.54,0-1.07,0-1.59s0-1,0-1.58-.07-1-.13-1.47-.1-1-.13-1.48c0-.11,0-.26,0-.44a5.14,5.14,0,0,1,0-.55c0-.18,0-.37,0-.54a1,1,0,0,1,.16-.42A2.5,2.5,0,0,1,70.34,53c.59-.25,1.25-.48,2-.7s1.42-.38,2.11-.52A11.64,11.64,0,0,1,76,51.52a7.13,7.13,0,0,1,2.32.18,5,5,0,0,1,1.73.77,3.79,3.79,0,0,1,1.08,1.22A3.59,3.59,0,0,1,81.5,55.2Zm-4.72.53a.81.81,0,0,0-.35-.65,1.71,1.71,0,0,0-1-.17,4.23,4.23,0,0,0-1,.19,8.53,8.53,0,0,0-.94.33c.13.9.21,1.79.25,2.68.35-.11.71-.23,1.08-.38a5.37,5.37,0,0,0,1-.53,3.19,3.19,0,0,0,.74-.66A1.15,1.15,0,0,0,76.78,55.73Z"></path></svg>