<svg xmlns="http://www.w3.org/2000/svg" id="Layer_1" data-name="Layer 1" viewBox="0 0 136.5 163.82"><defs><style>.cls-1{fill:#1b181c;}.cls-2{fill:#fbc42c;}.cls-3{fill:#fff;}</style></defs><title>Trick or treat 2</title><path d="M57.77,10.23q2.2,72,3.08,144.07a1.6,1.6,0,0,0,1.82,1.58,30.89,30.89,0,0,1,6.92.14,1.62,1.62,0,0,0,1.77-1.79C66,106.43,65.91,57.49,69.55,9.52a1.62,1.62,0,0,0-1.73-1.73c-2.82.22-5.76.57-8.56.78A1.62,1.62,0,0,0,57.77,10.23Z"></path><path class="cls-1" d="M69.76,156.43h-.21a30.94,30.94,0,0,0-6.83-.15,2,2,0,0,1-1.57-.47,2,2,0,0,1-.7-1.49C59.87,106.5,58.83,58,57.38,10.24a2,2,0,0,1,1.85-2.06c1.45-.11,3-.26,4.44-.41s2.76-.27,4.12-.37A2,2,0,0,1,69.36,8,2,2,0,0,1,70,9.55c-3.88,51-3.27,99.65,1.8,144.64a2,2,0,0,1-2,2.24Zm-4.7-1.09c1.49,0,3.06.13,4.57.28A1.2,1.2,0,0,0,71,154.28c-5.08-45-5.68-93.76-1.81-144.79a1.21,1.21,0,0,0-1.3-1.3c-1.35.11-2.75.24-4.1.38s-3,.29-4.46.4a1.21,1.21,0,0,0-1.12,1.25c1.46,47.79,2.5,96.26,3.08,144.08a1.18,1.18,0,0,0,.42.9,1.17,1.17,0,0,0,.95.28A19.19,19.19,0,0,1,65.06,155.34Z"></path><path class="cls-2" d="M9.85,67.82c1.64-.68,6.24-.54,7.35-.66q18.6-1.91,37.23-3.36t37.3-2.45c3.48-.18,36,.1,36.48-1.51-.64,2.06-1.47,5-3.19,6.31.78-.35,2.19.71,2.71,1.39a2,2,0,0,1,0,2.37,7.49,7.49,0,0,1-2,1.9c.83.35,1.65,1.06,2.47,1.41-.14,5.87-.22,12.09-.36,18l-3.16.35c.94.94,1.88,2.23,2.82,3.17.29.29,0,.86-.35.68-37.93,2.05-75,6.16-112.21,13.92-.36-1.64-1.17-3.1-1.52-4.75l5.3-6c-1.88,0-4.13-.37-6-.37-.78-4.88-1.05-9.83-1.38-14.76-.27-4,.1-8.41-.87-12.14-.27-1-1.82-2-1.13-3.13A1,1,0,0,1,9.85,67.82Z"></path><path class="cls-1" d="M14.64,109.77l-.08-.38a15.28,15.28,0,0,0-.75-2.32,17.21,17.21,0,0,1-.77-2.43l0-.2.13-.15,2.65-3L17.86,99c-.71,0-1.45-.1-2.17-.16-1-.09-2-.18-3-.18h-.34l-.05-.34c-.7-4.34-1-8.8-1.28-13.12l-.11-1.67c-.09-1.31-.11-2.69-.13-4a34.52,34.52,0,0,0-.73-8,3.08,3.08,0,0,0-.56-1C9,69.77,8.42,68.92,9,68a1.43,1.43,0,0,1,.7-.53h0c1.26-.53,4-.58,6-.63.66,0,1.23,0,1.51,0C29.5,65.5,42,64.37,54.4,63.41S79.32,61.62,91.71,61c.85,0,3.31-.06,6.73-.08,8.44-.06,28.21-.2,29.44-1.24a.24.24,0,0,0,0,.09l.76.23-.11.37a15.88,15.88,0,0,1-2.5,5.47,5.14,5.14,0,0,1,2.07,1.5,2.37,2.37,0,0,1-.05,2.87l-.13.15a10.66,10.66,0,0,1-1.35,1.45c.23.13.45.28.67.42a8.51,8.51,0,0,0,1.18.67l.24.11v.27c-.07,2.93-.13,6-.18,9s-.11,6-.18,9v.35l-2.71.31.87,1c.46.55.93,1.11,1.39,1.56a.88.88,0,0,1,.09,1.09.7.7,0,0,1-.78.28C85.84,98,49.18,102.56,15,109.69Zm-.78-5.1a17.51,17.51,0,0,0,.7,2.12,19.51,19.51,0,0,1,.68,2C49.35,101.74,86,97.2,127.14,95h.08c-.48-.48-1-1.06-1.43-1.61s-.93-1.1-1.38-1.56l-.59-.59,3.64-.4c.07-2.83.12-5.73.17-8.63s.11-5.87.17-8.72c-.35-.18-.7-.4-1-.62a8.43,8.43,0,0,0-1.17-.67l-.79-.34.77-.39a6.58,6.58,0,0,0,1.69-1.65l.12-.14a1.56,1.56,0,0,0,0-1.88c-.54-.71-1.76-1.48-2.22-1.26L122,68l2.8-2.14c1.4-1.07,2.2-3.4,2.79-5.28-2.35.63-9.49,1-29.13,1.1-3.27,0-5.86.05-6.69.09-12.38.66-24.92,1.49-37.29,2.45s-24.89,2.1-37.22,3.36c-.32,0-.87,0-1.58.06-1.8,0-4.53.1-5.65.57h0c-.25.1-.32.18-.33.21-.29.46,0,.91.49,1.59a4.19,4.19,0,0,1,.69,1.23,35.91,35.91,0,0,1,.75,8.24c0,1.32,0,2.68.13,4l.11,1.67c.27,4.19.56,8.51,1.21,12.71.87,0,1.8.1,2.7.19s2,.18,3,.18h.89l-.59.66-2.65,3Z"></path><path class="cls-2" d="M16.15,20.6c33.75-2.78,70.41-6.32,104.16-9.1a1.23,1.23,0,0,1,1.34,1.22c0,9,.32,18.34.36,27.38a1.24,1.24,0,0,1-.91,1.2c-.6.16-1.23.36-1.84.55a1.24,1.24,0,0,0-.53,2.06,5.7,5.7,0,0,0,2.79,1.53,1.23,1.23,0,0,1,.9,1.51c0,.17-.09.34-.13.51a1.23,1.23,0,0,1-1.24.92C86.5,47.21,51.79,50.31,18.35,59A1.24,1.24,0,0,1,16.8,57.7c.27-2.2.52-4.48.8-6.65a1.2,1.2,0,0,1,1-1.06,4.26,4.26,0,0,0,2.8-1.7,1.24,1.24,0,0,0-.81-2,3.94,3.94,0,0,1-1.91-.81,4.69,4.69,0,0,1-1.16-3.26c-.58-8-1.82-10.46-.43-12.22a1.24,1.24,0,0,0-.78-2h0a1.23,1.23,0,0,1-1.05-1.14c-.11-1.58-.13-3.38-.23-5A1.22,1.22,0,0,1,16.15,20.6Z"></path><path class="cls-1" d="M18,59.48a1.66,1.66,0,0,1-1.08-.4,1.64,1.64,0,0,1-.54-1.43c.12-1,.23-2,.35-2.95.14-1.25.29-2.49.44-3.7a1.61,1.61,0,0,1,1.38-1.41,3.85,3.85,0,0,0,2.53-1.54.84.84,0,0,0,.11-.82.86.86,0,0,0-.66-.52,4.26,4.26,0,0,1-2.12-.91,5.08,5.08,0,0,1-1.29-3.52c-.21-2.84-.49-4.94-.72-6.63-.41-3.07-.62-4.6.38-5.87a.81.81,0,0,0,.12-.82.84.84,0,0,0-.65-.53h-.05a1.65,1.65,0,0,1-1.38-1.51c0-.83-.09-1.72-.12-2.59s-.06-1.63-.11-2.39a1.64,1.64,0,0,1,1.49-1.74h0c16.9-1.39,34.81-3,52.14-4.55s35.17-3.16,52-4.55a1.63,1.63,0,0,1,1.77,1.62c0,4.46.1,9.06.18,13.51s.15,9.29.17,13.87a1.63,1.63,0,0,1-1.19,1.58L120,42l-.65.2a.83.83,0,0,0-.57.59.84.84,0,0,0,.22.81,5.34,5.34,0,0,0,2.58,1.42,1.59,1.59,0,0,1,1,.72,1.69,1.69,0,0,1,.2,1.28l-.13.5A1.65,1.65,0,0,1,121,48.78C84.77,47.55,50.26,51.13,18.45,59.43A2,2,0,0,1,18,59.48ZM16.18,21a.82.82,0,0,0-.77.89c.05.77.09,1.6.12,2.41s.06,1.75.12,2.56a.84.84,0,0,0,.71.78h0a1.64,1.64,0,0,1,1,2.63c-.78,1-.6,2.33-.21,5.26.23,1.7.52,3.82.72,6.68a4.47,4.47,0,0,0,1,3,3.65,3.65,0,0,0,1.7.71,1.64,1.64,0,0,1,1.07,2.6,4.64,4.64,0,0,1-3.07,1.85.83.83,0,0,0-.69.72c-.15,1.21-.3,2.45-.44,3.69-.11,1-.23,2-.35,3a.86.86,0,0,0,.28.74.82.82,0,0,0,.77.17C50.13,50.34,84.72,46.75,121.06,48a.81.81,0,0,0,.84-.63l.13-.51a.85.85,0,0,0-.1-.66.77.77,0,0,0-.5-.36,6.13,6.13,0,0,1-3-1.64,1.63,1.63,0,0,1-.42-1.57,1.59,1.59,0,0,1,1.11-1.15l.64-.2,1.22-.36a.84.84,0,0,0,.61-.81c0-4.58-.1-9.29-.18-13.86s-.16-9-.18-13.51a.85.85,0,0,0-.27-.62.86.86,0,0,0-.63-.22c-16.86,1.39-34.74,3-52,4.55S33.07,19.61,16.18,21Z"></path><path class="cls-3" d="M47.91,48.71l41.56-4.55Q89.8,56.1,90.15,68c-14.07,1-28.75,1.54-42.83,2.57C47.78,63.32,47.45,56,47.91,48.71Z"></path><path class="cls-1" d="M46.9,71l0-.45c.23-3.64.26-7.35.29-10.93s.06-7.32.29-11l0-.33,42.32-4.63.71,24.68-.38,0c-7,.52-14.35.91-21.42,1.29S54.39,70.5,47.35,71Zm1.38-22c-.21,3.52-.24,7.12-.27,10.59s-.06,7-.26,10.52c6.9-.5,14-.88,21-1.25s14.11-.77,21-1.26L89.08,44.6Z"></path><path d="M40.61,26.38a6.45,6.45,0,0,1,.82,2.43c0,.6,0,.9,0,1.41a8.73,8.73,0,0,1,.11,1,1.67,1.67,0,0,1-.24.94,1.37,1.37,0,0,1-.87.43,2.43,2.43,0,0,1-1,0l-.71-.21a1.82,1.82,0,0,0-1.29,0,1.17,1.17,0,0,0-.65.68,2.72,2.72,0,0,0-.09,1.05,19.08,19.08,0,0,0,.35,2.34,3.43,3.43,0,0,1,.07.77c0,.18,0,.34,0,.47a2.56,2.56,0,0,0,.1.86,2.23,2.23,0,0,1,.08.81,1.39,1.39,0,0,1-.16.51,1.22,1.22,0,0,1-.32.36,2.86,2.86,0,0,0-.36.3l-.34.32c-.12.11-.25.22-.38.35.09,1.42.16,2.71.14,3.62s0,1.68,0,2.25a2.49,2.49,0,0,1-.22,1.34A3.12,3.12,0,0,1,34,49.6a.94.94,0,0,1-1.22-.45,5.1,5.1,0,0,1-.55-2.36A20.33,20.33,0,0,0,32,44.22a10,10,0,0,0-.38-1.51q-.21-.6-.39-1.05a7.3,7.3,0,0,1-.32-1.19,2.14,2.14,0,0,1,.18-1.39,3,3,0,0,1-.75-.77,1.78,1.78,0,0,1,0-1.17,6,6,0,0,0,.14-1.48,5,5,0,0,0-.18-1.21c-.22-.83-.59-1.25-1.17-1.3a2.81,2.81,0,0,0-1.38.31,10.51,10.51,0,0,1-1.13.48,1.49,1.49,0,0,1-.86,0c-.29-.09-.45-.22-.46-.38a1,1,0,0,1,.09-.53,5.06,5.06,0,0,1,.23-.52.46.46,0,0,0-.11-.5.93.93,0,0,0-.51-.32,1.21,1.21,0,0,1-.55-.26c-.43-.3-.54-1-.33-2.12s.34-2.16.43-2.89.14-1.24.18-1.55a2,2,0,0,1,.23-.79,1.57,1.57,0,0,1,.54-.58,3.85,3.85,0,0,1,2.36-.43c4.67.35,7.37.89,7.87.79a4.39,4.39,0,0,0,.52-.1C37.45,23.42,39.33,24,40.61,26.38Z"></path><path d="M50.82,39.59a4.5,4.5,0,0,0-.24,1,2.86,2.86,0,0,1-.8,1.23,2.66,2.66,0,0,0,.17,1.8.93.93,0,0,1-.63.64,1.52,1.52,0,0,1-1.56-.07c-.43-.38-.73-.57-.93-.56a1,1,0,0,0-.23,0,1.57,1.57,0,0,1-.38,0c-.15,0-.23-.15-.21-.42a1.82,1.82,0,0,0-.06-.62c-.05-.15-.1-.31-.16-.47a2.76,2.76,0,0,1-.12-1.44,7.14,7.14,0,0,1,.22-.86c.08-.25.18-.49.26-.72a2.59,2.59,0,0,0,.07-1.89A11.73,11.73,0,0,0,45.69,36a5.73,5.73,0,0,1-.42-1.32,1.08,1.08,0,0,1,0-.56l.16-.37a1.68,1.68,0,0,0,.07-1.07,10.19,10.19,0,0,1-.18-1.11,7.14,7.14,0,0,0-.09-1c-.07-.37-.16-.81-.29-1.34s-.29-1.07-.47-1.6c-.6-1.74-1.22-2.63-.87-2.78l.23-.09a1.3,1.3,0,0,0,.28-.15,1.12,1.12,0,0,0,.22-.21.5.5,0,0,1,.23-.16,2.57,2.57,0,0,1,1.17.09q.91.21,1.29.27l.71.11a4.18,4.18,0,0,0,.71,0l1.07,0,1.58,0c.59,0,1.2,0,1.84.05a11.13,11.13,0,0,1,5.54,1.56,2.31,2.31,0,0,1,1,1.19,5.65,5.65,0,0,1,.16,1c0,.31.07.66.12,1a2.63,2.63,0,0,1-.14,1.06c-.1.37-.15.67-.21.84s-.11.33-.17.48a2.09,2.09,0,0,0-.06,1,3.31,3.31,0,0,1,0,1.37c-.09.34-.19.69-.29,1-.3.86-.72,1.34-1.14,1.47l-.58.16a.5.5,0,0,0-.28.29c0,.1,0,.21.15.32a1.41,1.41,0,0,1,.41.48.82.82,0,0,0,.3.36.66.66,0,0,0,.3.07,1.25,1.25,0,0,1,.55.09c.12.13.22.24.28.32s0,.23-.07.42a1.07,1.07,0,0,0-.15.56,3.3,3.3,0,0,0,.08.6,2.35,2.35,0,0,1,.06.55,1.31,1.31,0,0,0,0,.33,4.27,4.27,0,0,0,.38.56,1,1,0,0,1,.06,1c-.16.27-.31.43-.48.48a1.31,1.31,0,0,1-.59,0,3.25,3.25,0,0,1-.6-.19,4,4,0,0,0-.41-.14,1.43,1.43,0,0,0-.32-.05,2.08,2.08,0,0,1-.39,0,2.85,2.85,0,0,1-1.73-1.5,1.25,1.25,0,0,0-.8-.74c-.54-.14-.8-.35-.74-.64a5.31,5.31,0,0,1,.19-.57c.16-.47.07-.83-.36-1a2.47,2.47,0,0,0-.64-.09,2,2,0,0,0-.72.23A2,2,0,0,0,50.82,39.59ZM53,34.28a9,9,0,0,1,.75-.76,2.31,2.31,0,0,0,.59-.86,10.11,10.11,0,0,0,.37-1,12,12,0,0,0,.32-1.39,1.6,1.6,0,0,0-.07-.74c-.07-.12-.31-.17-.71-.14a4.08,4.08,0,0,1-1.2-.12c-.4-.1-.65-.25-.7-.41-.1-.35-.31-.52-.61-.39a1.2,1.2,0,0,0-.34.2.86.86,0,0,0-.13.5,4.83,4.83,0,0,0,0,1.22c0,.27.06.46.08.57s0,.22,0,.35,0,.28,0,.46.08.47.17.9a9,9,0,0,1,.2,1.12,3.41,3.41,0,0,0,.28,1A1.48,1.48,0,0,0,53,34.28Z"></path><path d="M69.32,38.27a.78.78,0,0,0,.76.34.87.87,0,0,1,.6.06c.2.17.28.55.38,1.14a2.48,2.48,0,0,0,.27.8l.29.49a1.17,1.17,0,0,1,.14.77.88.88,0,0,1-.57.5c-.28.11-.52.19-.72.25a1.74,1.74,0,0,0-.54.28,1.35,1.35,0,0,1-.88.28h-.78a1.13,1.13,0,0,0-.49.1,1.19,1.19,0,0,1-.44.09,2.88,2.88,0,0,1-.47-.06,6.57,6.57,0,0,0-1.27-.12,3.79,3.79,0,0,1-2.24-1.52,2.31,2.31,0,0,1-.52-1.06.81.81,0,0,1,.11-.66,1.08,1.08,0,0,1,.39-.24l.43-.14.37-.1c.13-.05.19-.24.21-.51a5.76,5.76,0,0,1,.13-.78A5.48,5.48,0,0,1,65,36.7a1.12,1.12,0,0,0,.06-1.27,5.58,5.58,0,0,1-.34-2.7c0-.82,0-1.46,0-1.9A3.43,3.43,0,0,1,65,29.18a5.55,5.55,0,0,0,.21-.55.92.92,0,0,0,0-.3c0-.13-.24-.18-.59-.14a1.44,1.44,0,0,1-1-.23,1.14,1.14,0,0,1-.41-1,2.79,2.79,0,0,0-.4-1.42,2.77,2.77,0,0,1-.46-1.05,1.37,1.37,0,0,0-.22-.68,4.26,4.26,0,0,1-.31-.49c-.15-.33,0-.57.52-.72A8.54,8.54,0,0,1,64,22.28c.53,0,1-.06,1.54-.06a17.11,17.11,0,0,0,2.4-.11,4.59,4.59,0,0,0,.81-.24l.85-.33a3.19,3.19,0,0,1,1.72-.22,2.13,2.13,0,0,1,1.09.49,2.47,2.47,0,0,1,.52.75,4,4,0,0,1,.25.87,5.3,5.3,0,0,0,.26,1,2,2,0,0,1,0,1.81,1.79,1.79,0,0,1-1.23,1.09l-.48.11a1,1,0,0,0-.48.26,4.74,4.74,0,0,0-1.11,2.63c-.28,1.89-.16,3.19-.4,5C69.66,36.42,69.4,37.29,69.32,38.27Z"></path><path d="M88.35,20.26a3,3,0,0,1,2.08.89l.34.38A1.43,1.43,0,0,1,91,22a2.7,2.7,0,0,1,.18,1.48,5.81,5.81,0,0,0,0,1.52c0,.37.08.72.11,1.05.06.57-.4,1.24-1.15,2.15a4.81,4.81,0,0,1-1.82,1.6l-.7.21a4.42,4.42,0,0,1-1.64.26c-.42,0-.68-.12-.79-.28a1.59,1.59,0,0,1,.31-1.78,2,2,0,0,0,.25-.6c.08-.27,0-.42-.34-.47s-.25-.08-.27-.17,0-.16,0-.22a.38.38,0,0,0,0-.14s-.15,0-.36.16l-.37.2a.39.39,0,0,1-.2,0,.48.48,0,0,0-.36.06,3,3,0,0,0-.5.33,4.28,4.28,0,0,0-1.47,2.88q-.08.63-.09,1.17a12.21,12.21,0,0,1-.26,1.76A3.29,3.29,0,0,1,81,34c-.2.3-.38.58-.53.84a1.74,1.74,0,0,0-.13,1.86A5.32,5.32,0,0,0,81.2,38a1.2,1.2,0,0,0,.88.22.86.86,0,0,0,.7-.43c.14-.24.28-.51.41-.78a5.72,5.72,0,0,1,.47-.76,1,1,0,0,1,.62-.4,4.14,4.14,0,0,1,.9,0,7.45,7.45,0,0,0,.75,0,1.13,1.13,0,0,1,.51.17c.2.12.32.39.39.83a6.26,6.26,0,0,0,.26,1.09.87.87,0,0,1-.06.76,1.09,1.09,0,0,0-.17.61,1.58,1.58,0,0,0,.12.53,3.1,3.1,0,0,1,.33,1c0,.21,0,.39,0,.53s-.33.22-.93.25-1,.28-.89.73-.06.65-.56.62a3.9,3.9,0,0,1-1.71-.56,3.39,3.39,0,0,0-1.48-.49,3.31,3.31,0,0,1-.5-.09,4.28,4.28,0,0,0-.54-.12,2.76,2.76,0,0,1-.68-.18,6.64,6.64,0,0,1-1.91-1.06c-.38-.31-.68-.57-.95-.77a5.65,5.65,0,0,1-.66-.56A1.62,1.62,0,0,1,75.8,38c-.06-1-.16-1.52-.58-1.73q-.36-.13-.36-.24a1.42,1.42,0,0,0-.12-.41c-.11-.27,0-.58.22-1a2.69,2.69,0,0,0,.35-1.1c0-.29,0-.6,0-.93a4.1,4.1,0,0,1,.29-1.73A3.1,3.1,0,0,0,76,29.63a5.57,5.57,0,0,1,.27-1.12,10.28,10.28,0,0,0,.42-1.12c.13-.49.28-1.07.42-1.7.37-1.61.72-3,1.66-3.8,1.4-1.19,2.3-1.76,2.78-1.79a3.39,3.39,0,0,1,.57,0,1.45,1.45,0,0,0,.61-.09,1.21,1.21,0,0,0,.42-.26,2.72,2.72,0,0,0,.27-.37A1,1,0,0,1,84.87,19c.69.4,1.16.75,1.47.89A4.13,4.13,0,0,0,88.35,20.26Z"></path><path d="M95.18,24.36l.1-.66a2.7,2.7,0,0,0-.09-.53,5.14,5.14,0,0,1-.13-.82c0-.26,0-.48,0-.67v-.51a1.9,1.9,0,0,0-.17-.64,1,1,0,0,1,0-.79A1.43,1.43,0,0,0,95,19a2,2,0,0,1,.06-.72,1.11,1.11,0,0,1,.61-.65,1,1,0,0,1,.88-.12c.25.1.51.22.8.36a3.28,3.28,0,0,0,2.14.45,2.76,2.76,0,0,1,1.36,0,1.39,1.39,0,0,1,.62.46,2.51,2.51,0,0,1,.32.66c.07.24.15.47.24.71a5.28,5.28,0,0,1,.22.91,2,2,0,0,1-.27,1.2,2.29,2.29,0,0,0-.37,1.05,5.55,5.55,0,0,0,.06.89,3.63,3.63,0,0,1-.48,2.32.76.76,0,0,0-.15.21.6.6,0,0,1-.15.18,8.76,8.76,0,0,0,2.28-1.56,5.08,5.08,0,0,0,.82-1.29c.21-.5.34-.82.42-.95s.14-.23.19-.31a1.52,1.52,0,0,0,.31-.78,3.89,3.89,0,0,1,.78-2,4.41,4.41,0,0,1,.15-2,1.89,1.89,0,0,1,1.49-1.29,2.38,2.38,0,0,1,1.73.05,4.79,4.79,0,0,1,1.37-.25,1.88,1.88,0,0,1,.92.35c.57.36.74,1.08.49,2.29a2.84,2.84,0,0,0-.09.72,4.71,4.71,0,0,1,0,.75,3.09,3.09,0,0,1-.88,1.64,4.63,4.63,0,0,0-1.48,3.27,2.07,2.07,0,0,1-.42,1.33,1.56,1.56,0,0,1-.92.51,2.07,2.07,0,0,0-1,.42,6.16,6.16,0,0,0-.86.76,3.84,3.84,0,0,0-1.07,1.62,1.41,1.41,0,0,0,.28,1l.85,1.19a13.12,13.12,0,0,0,1,1.18A9.67,9.67,0,0,1,110,38.07a2.26,2.26,0,0,0,.62,1,1,1,0,0,1,.25,1.12,1.08,1.08,0,0,1-.76.67c-1.25.35-2.41-.18-3.42-1.56a7.89,7.89,0,0,0-3.52-2.47,2.35,2.35,0,0,1-1-.74l-.51-.66a1.72,1.72,0,0,0-.48-.45l-.59-.39a.93.93,0,0,0-.67-.16c-.4,0-.55.3-.47.8.07.28.1.43.17.72.37,1.48.46,2.41,0,2.67a.6.6,0,0,0-.32.58,4.68,4.68,0,0,0,.09.83,3.79,3.79,0,0,1,0,.81c0,.25-.19.4-.57.47a3,3,0,0,1-2.34-.72,5.75,5.75,0,0,1-1.74-2.18c-.36-.83-.51-1.34-.62-1.55a2.26,2.26,0,0,0-.34-.51L93.41,36a3.35,3.35,0,0,1-.38-.47A1.94,1.94,0,0,1,92.66,34a8,8,0,0,1,.27-1.27,2.24,2.24,0,0,0,.14-.87,2.06,2.06,0,0,1,.19-1,3,3,0,0,0,.27-.81,2.23,2.23,0,0,1,.22-.69l.34-.7a7.2,7.2,0,0,0,.57-1.42c.09-.38.17-.7.23-.89l.15-.49a3,3,0,0,0,.11-.4C95.17,25,95.18,24.81,95.18,24.36Z"></path><path d="M21.62,77.94c.65,0,1.22,0,1.72-.08l2.23-.19a13.25,13.25,0,0,0,3.34-.57,5.59,5.59,0,0,1,3.16-.61,7.36,7.36,0,0,0,1.31,0,3.1,3.1,0,0,0,1.26-.5,3.08,3.08,0,0,1,1.63-.4,5.93,5.93,0,0,1,1.4.16,2.81,2.81,0,0,1,1.14.62,3.09,3.09,0,0,1,.8.95,2.68,2.68,0,0,1,.29.9c.15.73.17,1.17.26,1.38l.29.62a.76.76,0,0,1,.09.62,2.18,2.18,0,0,1-1.49,1.49,1.4,1.4,0,0,1-1.38-.22,4.62,4.62,0,0,1-.65-.82,1.72,1.72,0,0,0-.6-.51,1.08,1.08,0,0,0-.87-.09.66.66,0,0,0-.59.55,5.57,5.57,0,0,0-.19,1.57c0,.8.15,1.82.3,2.92s.25,2.07.31,2.81.1,1.45.12,2.06a5.09,5.09,0,0,1-.08,1.4,4.67,4.67,0,0,1-1,1.82,1.66,1.66,0,0,0-.38.83,4,4,0,0,0,0,1c0,.35,0,.71.09,1.07a7.51,7.51,0,0,1,0,1.36,4.36,4.36,0,0,1-1.53,3.16,4.71,4.71,0,0,0-1,1.2,7,7,0,0,1-.65.94,1,1,0,0,1-.52.29.51.51,0,0,1-.46-.09,1.91,1.91,0,0,1-.27-.35c-.17-.37-.43-.66-.69-.68s-.56-.25-.61-.87-.08-1.21-.08-1.72,0-1.16,0-1.89a2.82,2.82,0,0,0-.43-1.64,2.06,2.06,0,0,0-.71-.65c-.19-.07-.3-.31-.33-.67a2.22,2.22,0,0,1,.14-1c.11-.29.27-.49.41-.82a9.75,9.75,0,0,0,.39-4.08c-.19-2.87-.39-4.8-.51-5.52-.25-1.43-.63-1.66-1.42-1.6a1.5,1.5,0,0,0-.88.3,4.18,4.18,0,0,0-.54.74,1.94,1.94,0,0,1-2.55.86,1.5,1.5,0,0,1-.94-.72,2.65,2.65,0,0,1-.27-.88c0-.24,0-.46-.06-.7a1,1,0,0,0-.36-.67l-.61-.58a.59.59,0,0,1-.22-.57,1.25,1.25,0,0,1,.4-.57.47.47,0,0,0,.21-.55c-.07-.18,0-.36.26-.55A2.3,2.3,0,0,1,21.62,77.94Z"></path><path d="M53.31,74.56l1.23-.07a7.27,7.27,0,0,1,2.24.23,10,10,0,0,1,1.34.49,9.43,9.43,0,0,1,.9.45,7,7,0,0,0,.95.47,1.12,1.12,0,0,1,.68.57.91.91,0,0,0,.46.51.67.67,0,0,1,.39.59,2.9,2.9,0,0,1,0,.79,1.33,1.33,0,0,1-.27.6,1.94,1.94,0,0,0-.27.44.43.43,0,0,0,0,.4c.07.14,0,.48-.25,1.26S60.22,83,59.93,84a12,12,0,0,1-1,2.52,5.67,5.67,0,0,1-3.39,2.54c0,.2.05.38.09.58s.08.43.12.67a5.63,5.63,0,0,1,.07,1.41,2.46,2.46,0,0,0,0,.69,1,1,0,0,0,.12.33.46.46,0,0,0,.21.18,2.26,2.26,0,0,1,.4.21,1.28,1.28,0,0,1,.47.54,4.89,4.89,0,0,1,.34.82c.21.66.36,1.07.25,1.22a.79.79,0,0,1-.43.33,3,3,0,0,1-.62.12A2.06,2.06,0,0,1,55.29,96a1.71,1.71,0,0,1-.59-.5,1.74,1.74,0,0,0-.33-.46.71.71,0,0,0-.43-.25.66.66,0,0,1-.43-.39,1,1,0,0,0-.35-.45,1.13,1.13,0,0,0-.71-.06A1.25,1.25,0,0,1,51,93a2.56,2.56,0,0,1-.17-.63c-.05-.25-.09-.5-.13-.72-.07-.55-.19-.81-.43-.83a.85.85,0,0,0-.59.11,1.27,1.27,0,0,0-.4.4,1.8,1.8,0,0,0-.23.57,2.18,2.18,0,0,0,0,.68,1.65,1.65,0,0,1,0,.64,2.1,2.1,0,0,1-.22.45c-.09.12-.19.24-.28.34a.86.86,0,0,0-.32.73c0,.33,0,.62,0,.87,0,.61-.1,1-.32,1.19a2,2,0,0,1-.69.46,3.73,3.73,0,0,1-.81.22c-.72.11-1.19.08-1.42-.12a1.53,1.53,0,0,1-.4-.52,1.16,1.16,0,0,1-.08-.42,3.94,3.94,0,0,1,0-.47,4,4,0,0,0,0-.6,7.24,7.24,0,0,0-.15-.87,4.08,4.08,0,0,1,0-1.32c0-.37.08-.55.15-.89a1.72,1.72,0,0,1,.38-.49,1.12,1.12,0,0,0,.39-.68c0-.22-.05-.32-.25-.34s-.29-.06-.24-.14.19-.25.37-.54a2.77,2.77,0,0,0,.29-1.51c0-.74,0-1.55-.06-2.25-.05-1.5-.33-2.4-.69-2.55a.93.93,0,0,1-.63-.64,2.28,2.28,0,0,1,0-.9c.06-.32.14-.7.25-1.08a9,9,0,0,1,.37-.9c.08-.24.15-.48.2-.7s.07-.37.09-.46a.5.5,0,0,0,0-.24,1.42,1.42,0,0,1-.07-.22,1.36,1.36,0,0,1-.18-.6,1.07,1.07,0,0,0-.24-.72,1.19,1.19,0,0,1-.26-.67A4.74,4.74,0,0,1,44,76q0-.21.36-.36a1.83,1.83,0,0,0,.62-.39,2.61,2.61,0,0,0,.39-.45,1.71,1.71,0,0,0,.22-.42.59.59,0,0,1,.37-.31,4.1,4.1,0,0,1,1.67-.22A7.38,7.38,0,0,1,48.8,74c.29.07.6.14,1,.2a9.36,9.36,0,0,0,1,.15,7.89,7.89,0,0,0,.81,0,5.21,5.21,0,0,1,1.23.1A1.51,1.51,0,0,0,53.31,74.56ZM51.5,81.39c0,1.29,0,2.21.07,3.83a6.48,6.48,0,0,1-.08.77c0,.25-.09.48-.12.67-.07.41.05.65.34.71a.63.63,0,0,0,.62-.25,3.36,3.36,0,0,0,.5-.86c.35-.72.48-1.21.39-1.41a.79.79,0,0,1-.14-.77c.1-.23.3-.67.62-1.28s.57-1.1.75-1.47a2.29,2.29,0,0,0,.25-1,1.7,1.7,0,0,1,.06-.55,1.8,1.8,0,0,0,.06-.22c0-.11,0-.21-.22-.3a1.44,1.44,0,0,0-.39-.15H54a1.91,1.91,0,0,1-.68,0,2,2,0,0,0-.59,0,1.75,1.75,0,0,0-.67.21,1,1,0,0,0-.45.39,1.72,1.72,0,0,0-.1.42C51.5,80.49,51.53,81.09,51.5,81.39Z"></path><path d="M63.32,89.88a8.68,8.68,0,0,1,.47-1.15c.11-.22.22-.47.32-.72a4,4,0,0,0,.22-1.13c0-.84.11-1.56.19-2s.14-.83.17-1.11a4,4,0,0,0,0-.76,8.56,8.56,0,0,0-.29-1.52,2.91,2.91,0,0,1,0-1.76,2.44,2.44,0,0,1,.91-1.07c.38-.28.54-.57.46-.85s-.18-.58-.31-.92-.27-.69-.45-1.07a4,4,0,0,1-.37-1.14c-.16-.93.43-1.49,2.22-1.6a24.06,24.06,0,0,1,3,0,11.12,11.12,0,0,0,1.91,0,5.84,5.84,0,0,0,1.45-.42A4,4,0,0,1,76,72.5a6.76,6.76,0,0,0,.73.17,3,3,0,0,1,.63.17,3.59,3.59,0,0,1,1.88,2,4,4,0,0,1,.22.84c.08.64,0,1.1.1,1.4a1.18,1.18,0,0,1-.1.79,7.1,7.1,0,0,1-.48.76c-.43.59-.85,1-1.28,1s-.61-.08-.7-.27a1.47,1.47,0,0,1-.15-.58,2.84,2.84,0,0,0-.06-.49c0-.12-.25-.15-.64-.11a8.13,8.13,0,0,1-2.21,0,3.11,3.11,0,0,0-.92-.12,3.59,3.59,0,0,0-.85.14,2.24,2.24,0,0,0-1.33.84,5.51,5.51,0,0,0-.65,1.34,8.78,8.78,0,0,0-.33,1.32c-.16,1-.11,1.57.16,1.67a.76.76,0,0,0,.72,0c.22-.13.45-.27.69-.44a3.89,3.89,0,0,1,2-.88,1,1,0,0,1,1.22.77,2.75,2.75,0,0,1,0,1.68c-.18.54-.35,1.05-.51,1.51a6.91,6.91,0,0,1-.53,1.18c-.78,1.26-1.61,1.28-2.41.83a6.17,6.17,0,0,0-2.75.56,1.87,1.87,0,0,0-.41.49,2,2,0,0,0-.32.85c-.09.79.45,1.23,1.43,1.18A5.43,5.43,0,0,0,71,90.79a3.34,3.34,0,0,0,1.13-.65,1.3,1.3,0,0,1,.64-.41l.62-.13a3.4,3.4,0,0,1,.53-.08,2.15,2.15,0,0,1,.51,0,.68.68,0,0,1,.65.68,2.18,2.18,0,0,1-.21,1.13,1.86,1.86,0,0,0-.21,1c0,.29.07.5.09.65a1,1,0,0,1-.13.54,2.23,2.23,0,0,0-.17.56c0,.15-.27.15-.73,0-.83-.27-1.41,0-1.46.8a.67.67,0,0,1-.12.53,1.6,1.6,0,0,1-.93.23,4,4,0,0,1-1.47-.14c-.47-.14-.89-.29-1.26-.44a3.3,3.3,0,0,0-2.27-.18,2.11,2.11,0,0,1-1.67-.42.94.94,0,0,1-.33-.31c-.1-.16-.21-.34-.32-.54a6.81,6.81,0,0,0-.65-.95.8.8,0,0,1-.24-.55c0-.24,0-.48,0-.72a3.42,3.42,0,0,1,0-.54.77.77,0,0,1,.16-.42A3,3,0,0,0,63.32,89.88Z"></path><path d="M83.68,94a2.73,2.73,0,0,1-1,0,3.28,3.28,0,0,1-1.19-.48,3.1,3.1,0,0,1-.86-.83,2.52,2.52,0,0,1-.42-1,5.32,5.32,0,0,1-.06-1c0-.74,0-1.18-.27-1.36-.6-.33-.65-.81,0-2.46.4-1,.84-2.11,1.2-2.94a34.1,34.1,0,0,0,1.31-3.5,8.21,8.21,0,0,1,.77-1.87,3.58,3.58,0,0,1,.68-.82c.21-.18.39-.37.59-.55a1.84,1.84,0,0,0,.52-.91,5.7,5.7,0,0,0,0-2c.06-.38.12-.8.21-1.27a2.32,2.32,0,0,1,.35-1c.4-.35,1.31-.4,2.62-.12a8.85,8.85,0,0,0,2.54.22,12.18,12.18,0,0,1,1.67-.08,5,5,0,0,1,1.45.35,5.28,5.28,0,0,1,1.35.71,3.21,3.21,0,0,1,.79.83,2.34,2.34,0,0,1,.35,1.73,9.85,9.85,0,0,1-.44,1.62,2.22,2.22,0,0,0-.19,1.31,7.7,7.7,0,0,1,.19,1.37c0,.38,0,.78,0,1.2s0,.87,0,1.37a12.4,12.4,0,0,0,0,1.7,11.45,11.45,0,0,1,0,1.45,4.54,4.54,0,0,1-.1.81,4.34,4.34,0,0,1-.15.53,1.23,1.23,0,0,0,0,.65,1.56,1.56,0,0,1,0,.75,4.61,4.61,0,0,1-.25.71,3.35,3.35,0,0,0-.5,1.62,3.51,3.51,0,0,1,.1,1.29l-.15.62a1.54,1.54,0,0,0,0,.67,1,1,0,0,1-.23.77.84.84,0,0,1-.91.18,2.89,2.89,0,0,1-1-.42,5,5,0,0,1-.65-.54c-.18-.19-.36-.36-.52-.51a1.13,1.13,0,0,0-.65-.27c-.47,0-.79-.23-.89-.54a1.81,1.81,0,0,1-.11-.79,1.49,1.49,0,0,0-.07-.69,2,2,0,0,0-.36-.68,2.37,2.37,0,0,0-1.61-.93,2.28,2.28,0,0,0-2.26.79,2,2,0,0,0-.28.69,2.15,2.15,0,0,1-.35.8,3.43,3.43,0,0,1-.49.6q-.25.24-.45.45a.51.51,0,0,0-.11.52C84.1,93.47,84.21,93.9,83.68,94ZM88,80.67a6.07,6.07,0,0,0-1.17,3.87,1,1,0,0,0,.82.84c.72.09,1.2.07,1.38-.14l.65-.66a1.88,1.88,0,0,0,.45-1.15c.06-.53.13-1,.2-1.42a4.62,4.62,0,0,0,0-1.38,4.32,4.32,0,0,1,0-1.48,7.21,7.21,0,0,1,.33-1.22c.27-.69.18-.93-.15-.94a.64.64,0,0,0-.54.21,3.77,3.77,0,0,0-.48.63C89,78.7,88.47,79.9,88,80.67Z"></path><path d="M101.59,72.47c.62.06,1.17.09,1.65.1s1.22,0,2.18.1a12,12,0,0,0,3.46-.12,5,5,0,0,1,3.34-.1,4.14,4.14,0,0,0,1.1.28,4.63,4.63,0,0,0,1.59-.32,3.68,3.68,0,0,1,1.81-.15,3.4,3.4,0,0,1,1,.37,1.76,1.76,0,0,1,.61.8,6.68,6.68,0,0,1,.44,1.14,6.6,6.6,0,0,1,.21,1.06,9.32,9.32,0,0,0,.36,1.73l.41.84a1.46,1.46,0,0,1,.14.86c-.09.7-.78,1.31-2,1.44a2.65,2.65,0,0,1-1.91-.36,6.15,6.15,0,0,1-1-.93c-.27-.3-.42-.54-.61-.76a1,1,0,0,0-.93-.25,1.39,1.39,0,0,0-1,.66c-.27.38-.11.89,0,1.62s.2,1.59.36,2.51.28,1.72.35,2.34.17,1.23.27,1.79.17,1,.21,1.37A1.32,1.32,0,0,1,113,90a.67.67,0,0,0-.37.47,1.43,1.43,0,0,0,0,.58c0,.2.08.4.14.61a1.68,1.68,0,0,1,0,.74c-.12.68-.71,1.14-1.77,1.39a2.25,2.25,0,0,0-1,.48,5,5,0,0,1-.55.46.82.82,0,0,1-.52.06,1.23,1.23,0,0,1-.55-.19l-.41-.3a1.83,1.83,0,0,0-.92-.56,1,1,0,0,1-.81-.59,2.85,2.85,0,0,1-.2-.86c0-.25,0-.56-.09-.91a1.2,1.2,0,0,0-.55-.88,3.2,3.2,0,0,0-.82-.44.55.55,0,0,1-.4-.43,1.2,1.2,0,0,1,0-.65c.07-.22.13-.44.23-.75a11.45,11.45,0,0,0,.44-3.38c0-2.27,0-3.82-.07-4.45-.15-1.26-.52-1.68-1.15-1.7a.79.79,0,0,0-.69.23,5.45,5.45,0,0,0-.48.66,1.41,1.41,0,0,1-2,.49,1,1,0,0,1-.57-.71,3.09,3.09,0,0,1,0-.91c0-.3.33-.59.47-.9a1.21,1.21,0,0,0,.06-.89,5.43,5.43,0,0,0-.34-.82,1.45,1.45,0,0,1-.18-.77,1.58,1.58,0,0,1,.22-.74.83.83,0,0,0,.06-.75.77.77,0,0,1,.15-.78A1.38,1.38,0,0,1,101.59,72.47Z"></path><path class="cls-1" d="M60.81,64.84a6.81,6.81,0,0,1-2.75-.35,5.4,5.4,0,0,1-2-1.29,5.67,5.67,0,0,1-1.25-2,7.82,7.82,0,0,1-.28-4.87,6.67,6.67,0,0,1,1.07-2.29,6.5,6.5,0,0,1,2-1.76,6.72,6.72,0,0,1,3-.82,6,6,0,0,1,2.88.43,5.1,5.1,0,0,1,1.91,1.46,6,6,0,0,1,1.11,2.1,9.73,9.73,0,0,1,.45,2.37,8.26,8.26,0,0,1-.24,2.55,6,6,0,0,1-1.07,2.16,5.81,5.81,0,0,1-1.94,1.57A7.22,7.22,0,0,1,60.81,64.84Zm-.29-9.56a1.39,1.39,0,0,0-.82.31,2,2,0,0,0-.53.71,3.25,3.25,0,0,0-.28,1,5.4,5.4,0,0,0,0,1.06,6,6,0,0,0,.2,1.19,4,4,0,0,0,.41,1.05,2.29,2.29,0,0,0,.62.74,1.27,1.27,0,0,0,.85.24,1.16,1.16,0,0,0,.88-.44,2.86,2.86,0,0,0,.47-.94,5.14,5.14,0,0,0,.18-1.11c0-.37,0-.69,0-.94a5.87,5.87,0,0,0-.15-1,3.74,3.74,0,0,0-.36-.93,2.18,2.18,0,0,0-.58-.69A1.24,1.24,0,0,0,60.52,55.28Z"></path><path class="cls-1" d="M81.94,53.92a3.16,3.16,0,0,1-.68,2.17,7.43,7.43,0,0,1-2.08,1.79c.29.26.59.56.91.91a8.27,8.27,0,0,1,.85,1.1,7.17,7.17,0,0,1,.64,1.18,3.27,3.27,0,0,1,.29,1.1,1.43,1.43,0,0,1-.34,1,1.72,1.72,0,0,1-1.31.52,2,2,0,0,1-1.41-.43,5.75,5.75,0,0,1-1.1-1.15c-.33-.46-.63-.92-.91-1.39A7.89,7.89,0,0,0,76,59.59l-.88.29-.88.3c0,.25,0,.6,0,1a5.64,5.64,0,0,1-.2,1.33,3.06,3.06,0,0,1-.58,1.17,1.56,1.56,0,0,1-1.17.55,1.79,1.79,0,0,1-1.34-.38,2.64,2.64,0,0,1-.72-1,5.08,5.08,0,0,1-.3-1.28c0-.44-.07-.78-.09-1,0-.54,0-1.06,0-1.58s0-1.05,0-1.59-.07-1-.13-1.46-.1-1-.13-1.49c0-.11,0-.26,0-.43a3.39,3.39,0,0,1,0-.55c0-.19,0-.37,0-.55a1,1,0,0,1,.16-.42,2.42,2.42,0,0,1,1.12-.75,16.51,16.51,0,0,1,2-.7c.72-.21,1.42-.39,2.11-.53a11.64,11.64,0,0,1,1.54-.24,7.13,7.13,0,0,1,2.32.18,4.86,4.86,0,0,1,1.72.77,3.67,3.67,0,0,1,1.08,1.22A3.46,3.46,0,0,1,81.94,53.92Zm-4.72.54a.81.81,0,0,0-.35-.66,1.72,1.72,0,0,0-1-.17,5.47,5.47,0,0,0-1,.19,8.53,8.53,0,0,0-.94.33c.12.9.21,1.79.25,2.68a10.78,10.78,0,0,0,1.08-.38,6,6,0,0,0,1-.52,3.47,3.47,0,0,0,.74-.67A1.14,1.14,0,0,0,77.22,54.46Z"></path></svg>