<svg width="9" height="5" viewBox="0 0 9 5" fill="none" xmlns="http://www.w3.org/2000/svg">
<path d="M0.00339592 1.2994L0.326052 0.0485265C0.328871 0.0377647 0.334916 0.0278465 0.343578 0.0197831C0.35224 0.0117198 0.363204 0.00580397 0.375353 0.00263228C0.387502 -0.000539413 0.400401 -0.000852556 0.412733 0.00173008C0.425065 0.00431272 0.436389 0.0096959 0.44555 0.0173304L4.50347 3.35842L8.55968 0.0217877C8.56884 0.0141532 8.58017 0.00877002 8.5925 0.00618739C8.60483 0.00360475 8.61773 0.00391789 8.62988 0.00708959C8.64203 0.0102613 8.65299 0.0161771 8.66165 0.0242404C8.67031 0.0323038 8.67637 0.042222 8.67918 0.0529838L8.99842 1.2994C9.00105 1.31012 9.00039 1.32127 8.99649 1.3317C8.99259 1.34213 8.9856 1.35149 8.97623 1.35882L4.49835 5L0.0187596 1.35882C0.0102757 1.35104 0.00437153 1.34141 0.00166691 1.33095C-0.00103867 1.32049 -0.000442619 1.30958 0.00339592 1.2994Z" fill="#010101"/>
</svg>
