<svg width="33" height="33" viewBox="0 0 33 33" fill="none" xmlns="http://www.w3.org/2000/svg">
<path fill-rule="evenodd" clip-rule="evenodd" d="M0.774033 3.7058C0 5.19588 0 7.1535 0 11.0688V21.9312C0 25.8465 0 27.8041 0.774033 29.2942C1.4263 30.5499 2.45013 31.5737 3.7058 32.226C5.19588 33 7.1535 33 11.0688 33H21.9312C25.8465 33 27.8041 33 29.2942 32.226C30.5499 31.5737 31.5737 30.5499 32.226 29.2942C33 27.8041 33 25.8465 33 21.9312V11.0688C33 7.1535 33 5.19588 32.226 3.7058C31.5737 2.45013 30.5499 1.4263 29.2942 0.774033C27.8041 0 25.8465 0 21.9312 0H11.0688C7.1535 0 5.19588 0 3.7058 0.774033C2.45013 1.4263 1.4263 2.45013 0.774033 3.7058ZM23.65 16.5L22.9167 21.0833H19.25V33H13.75V21.0833H9.625V16.5H13.75V12.8333C13.75 8.70832 16.4083 6.41665 20.1667 6.41665C21.3583 6.41665 22.6417 6.59999 23.8333 6.78332V11H21.725C19.7083 11 19.25 12.0083 19.25 13.2917V16.5H23.65Z" fill="black"/>
</svg>
