<svg width="34" height="33" viewBox="0 0 34 33" fill="none" xmlns="http://www.w3.org/2000/svg">
<g clip-path="url(#clip0_23_374)">
<path fill-rule="evenodd" clip-rule="evenodd" d="M0.799411 3.7058C0.0189819 5.19588 0.0189819 7.1535 0.0189819 11.0688V21.9312C0.0189819 25.8465 0.0189819 27.8041 0.799411 29.2942C1.45707 30.5499 2.48936 31.5737 3.75541 32.226C5.2578 33 7.2316 33 11.1792 33H22.1315C26.0791 33 28.0529 33 29.5553 32.226C30.8213 31.5737 31.8536 30.5499 32.5113 29.2942C33.2917 27.8041 33.2917 25.8465 33.2917 21.9312V11.0688C33.2917 7.1535 33.2917 5.19588 32.5113 3.7058C31.8536 2.45013 30.8213 1.4263 29.5553 0.774033C28.0529 0 26.0791 0 22.1315 0H11.1792C7.2316 0 5.2578 0 3.75541 0.774033C2.48936 1.4263 1.45707 2.45013 0.799411 3.7058ZM11.6481 4.57251C12.9387 4.51426 13.351 4.50001 16.6369 4.50001H16.6331C19.9199 4.50001 20.3308 4.51426 21.6213 4.57251C22.9093 4.63101 23.789 4.83326 24.5603 5.13001C25.3568 5.43626 26.0298 5.84626 26.7028 6.51376C27.3758 7.18076 27.7892 7.85026 28.0992 8.63951C28.3966 9.40251 28.6008 10.2745 28.6613 11.552C28.7193 12.832 28.7344 13.241 28.7344 16.5C28.7344 19.759 28.7193 20.167 28.6613 21.447C28.6008 22.724 28.3966 23.5963 28.0992 24.3595C27.7892 25.1485 27.3758 25.818 26.7028 26.485C26.0306 27.1525 25.3566 27.5635 24.5611 27.87C23.7913 28.1668 22.9111 28.369 21.6231 28.4275C20.3325 28.4858 19.9214 28.5 16.6353 28.5C13.3498 28.5 12.9376 28.4858 11.6471 28.4275C10.3593 28.369 9.47991 28.1668 8.71012 27.87C7.91487 27.5635 7.23986 27.1525 6.56762 26.485C5.89488 25.818 5.4815 25.1485 5.17223 24.3593C4.87328 23.5963 4.66937 22.7243 4.61014 21.4468C4.55166 20.1668 4.53704 19.759 4.53704 16.5C4.53704 13.241 4.55216 12.8318 4.60988 11.5518C4.66786 10.2748 4.87202 9.40251 5.17197 8.63926C5.48201 7.85026 5.89538 7.18076 6.56838 6.51376C7.24087 5.84651 7.91588 5.43651 8.71163 5.13001C9.48091 4.83326 10.3601 4.63101 11.6481 4.57251ZM16.2336 6.66239C15.9889 6.66228 15.7622 6.66218 15.5515 6.66251V6.65951C13.2966 6.66201 12.864 6.67701 11.7479 6.72701C10.5683 6.78076 9.92781 6.97576 9.50133 7.14076C8.93672 7.35876 8.53343 7.61876 8.10997 8.03876C7.68651 8.45876 7.42386 8.85876 7.20457 9.41876C7.03897 9.84176 6.84186 10.4768 6.78792 11.6468C6.72995 12.9118 6.71835 13.2898 6.71835 16.4943C6.71835 19.6988 6.72995 20.0788 6.78792 21.3438C6.84161 22.5138 7.03897 23.1488 7.20457 23.5713C7.42437 24.1315 7.68651 24.5305 8.10997 24.9505C8.53343 25.3705 8.93672 25.6305 9.50133 25.848C9.92807 26.0123 10.5683 26.2078 11.7479 26.2618C13.0233 26.3193 13.4062 26.3318 16.6369 26.3318C19.8672 26.3318 20.2504 26.3193 21.5258 26.2618C22.7054 26.2083 23.3461 26.0133 23.7721 25.8483C24.337 25.6308 24.739 25.3708 25.1625 24.9508C25.5859 24.531 25.8486 24.1323 26.0679 23.5723C26.2335 23.1498 26.4306 22.5148 26.4845 21.3448C26.5425 20.0798 26.5551 19.6998 26.5551 16.4973C26.5551 13.2948 26.5425 12.9148 26.4845 11.6498C26.4308 10.4798 26.2335 9.84476 26.0679 9.42226C25.8481 8.86226 25.5859 8.46226 25.1625 8.04226C24.7393 7.62226 24.3367 7.36226 23.7721 7.14476C23.3456 6.98051 22.7054 6.78501 21.5258 6.73151C20.2501 6.67401 19.8672 6.66251 16.6369 6.66251C16.4972 6.66251 16.3629 6.66245 16.2336 6.66239ZM21.6432 10.0945C21.6432 9.29926 22.2936 8.65501 23.0951 8.65501V8.65451C23.8966 8.65451 24.547 9.29951 24.547 10.0945C24.547 10.8895 23.8966 11.5345 23.0951 11.5345C22.2936 11.5345 21.6432 10.8895 21.6432 10.0945ZM10.4236 16.5C10.4236 13.0968 13.2054 10.3376 16.6366 10.3375C20.0679 10.3375 22.8491 13.0968 22.8491 16.5C22.8491 19.9033 20.0681 22.6613 16.6369 22.6613C13.2056 22.6613 10.4236 19.9033 10.4236 16.5ZM20.6698 16.5C20.6698 14.2908 18.864 12.5 16.6369 12.5C14.4094 12.5 12.6039 14.2908 12.6039 16.5C12.6039 18.709 14.4094 20.5 16.6369 20.5C18.864 20.5 20.6698 18.709 20.6698 16.5Z" fill="url(#paint0_radial_23_374)"/>
<path fill-rule="evenodd" clip-rule="evenodd" d="M0.799411 3.7058C0.0189819 5.19588 0.0189819 7.1535 0.0189819 11.0688V21.9312C0.0189819 25.8465 0.0189819 27.8041 0.799411 29.2942C1.45707 30.5499 2.48936 31.5737 3.75541 32.226C5.2578 33 7.2316 33 11.1792 33H22.1315C26.0791 33 28.0529 33 29.5553 32.226C30.8213 31.5737 31.8536 30.5499 32.5113 29.2942C33.2917 27.8041 33.2917 25.8465 33.2917 21.9312V11.0688C33.2917 7.1535 33.2917 5.19588 32.5113 3.7058C31.8536 2.45013 30.8213 1.4263 29.5553 0.774033C28.0529 0 26.0791 0 22.1315 0H11.1792C7.2316 0 5.2578 0 3.75541 0.774033C2.48936 1.4263 1.45707 2.45013 0.799411 3.7058ZM11.6481 4.57251C12.9387 4.51426 13.351 4.50001 16.6369 4.50001H16.6331C19.9199 4.50001 20.3308 4.51426 21.6213 4.57251C22.9093 4.63101 23.789 4.83326 24.5603 5.13001C25.3568 5.43626 26.0298 5.84626 26.7028 6.51376C27.3758 7.18076 27.7892 7.85026 28.0992 8.63951C28.3966 9.40251 28.6008 10.2745 28.6613 11.552C28.7193 12.832 28.7344 13.241 28.7344 16.5C28.7344 19.759 28.7193 20.167 28.6613 21.447C28.6008 22.724 28.3966 23.5963 28.0992 24.3595C27.7892 25.1485 27.3758 25.818 26.7028 26.485C26.0306 27.1525 25.3566 27.5635 24.5611 27.87C23.7913 28.1668 22.9111 28.369 21.6231 28.4275C20.3325 28.4858 19.9214 28.5 16.6353 28.5C13.3498 28.5 12.9376 28.4858 11.6471 28.4275C10.3593 28.369 9.47991 28.1668 8.71012 27.87C7.91487 27.5635 7.23986 27.1525 6.56762 26.485C5.89488 25.818 5.4815 25.1485 5.17223 24.3593C4.87328 23.5963 4.66937 22.7243 4.61014 21.4468C4.55166 20.1668 4.53704 19.759 4.53704 16.5C4.53704 13.241 4.55216 12.8318 4.60988 11.5518C4.66786 10.2748 4.87202 9.40251 5.17197 8.63926C5.48201 7.85026 5.89538 7.18076 6.56838 6.51376C7.24087 5.84651 7.91588 5.43651 8.71163 5.13001C9.48091 4.83326 10.3601 4.63101 11.6481 4.57251ZM16.2336 6.66239C15.9889 6.66228 15.7622 6.66218 15.5515 6.66251V6.65951C13.2966 6.66201 12.864 6.67701 11.7479 6.72701C10.5683 6.78076 9.92781 6.97576 9.50133 7.14076C8.93672 7.35876 8.53343 7.61876 8.10997 8.03876C7.68651 8.45876 7.42386 8.85876 7.20457 9.41876C7.03897 9.84176 6.84186 10.4768 6.78792 11.6468C6.72995 12.9118 6.71835 13.2898 6.71835 16.4943C6.71835 19.6988 6.72995 20.0788 6.78792 21.3438C6.84161 22.5138 7.03897 23.1488 7.20457 23.5713C7.42437 24.1315 7.68651 24.5305 8.10997 24.9505C8.53343 25.3705 8.93672 25.6305 9.50133 25.848C9.92807 26.0123 10.5683 26.2078 11.7479 26.2618C13.0233 26.3193 13.4062 26.3318 16.6369 26.3318C19.8672 26.3318 20.2504 26.3193 21.5258 26.2618C22.7054 26.2083 23.3461 26.0133 23.7721 25.8483C24.337 25.6308 24.739 25.3708 25.1625 24.9508C25.5859 24.531 25.8486 24.1323 26.0679 23.5723C26.2335 23.1498 26.4306 22.5148 26.4845 21.3448C26.5425 20.0798 26.5551 19.6998 26.5551 16.4973C26.5551 13.2948 26.5425 12.9148 26.4845 11.6498C26.4308 10.4798 26.2335 9.84476 26.0679 9.42226C25.8481 8.86226 25.5859 8.46226 25.1625 8.04226C24.7393 7.62226 24.3367 7.36226 23.7721 7.14476C23.3456 6.98051 22.7054 6.78501 21.5258 6.73151C20.2501 6.67401 19.8672 6.66251 16.6369 6.66251C16.4972 6.66251 16.3629 6.66245 16.2336 6.66239ZM21.6432 10.0945C21.6432 9.29926 22.2936 8.65501 23.0951 8.65501V8.65451C23.8966 8.65451 24.547 9.29951 24.547 10.0945C24.547 10.8895 23.8966 11.5345 23.0951 11.5345C22.2936 11.5345 21.6432 10.8895 21.6432 10.0945ZM10.4236 16.5C10.4236 13.0968 13.2054 10.3376 16.6366 10.3375C20.0679 10.3375 22.8491 13.0968 22.8491 16.5C22.8491 19.9033 20.0681 22.6613 16.6369 22.6613C13.2056 22.6613 10.4236 19.9033 10.4236 16.5ZM20.6698 16.5C20.6698 14.2908 18.864 12.5 16.6369 12.5C14.4094 12.5 12.6039 14.2908 12.6039 16.5C12.6039 18.709 14.4094 20.5 16.6369 20.5C18.864 20.5 20.6698 18.709 20.6698 16.5Z" fill="black"/>
</g>
<defs>
<radialGradient id="paint0_radial_23_374" cx="0" cy="0" r="1" gradientUnits="userSpaceOnUse" gradientTransform="translate(8.85709 35.5417) rotate(-90) scale(32.7054 30.67)">
<stop stop-color="#FFDD55"/>
<stop offset="0.1" stop-color="#FFDD55"/>
<stop offset="0.5" stop-color="#FF543E"/>
<stop offset="1" stop-color="#C837AB"/>
</radialGradient>
<clipPath id="clip0_23_374">
<rect width="33.2727" height="33" fill="white"/>
</clipPath>
</defs>
</svg>
