<svg width="35" height="33" viewBox="0 0 35 33" fill="none" xmlns="http://www.w3.org/2000/svg">
<path fill-rule="evenodd" clip-rule="evenodd" d="M1.68955 3.7058C0.909119 5.19588 0.909119 7.1535 0.909119 11.0688V21.9312C0.909119 25.8465 0.909119 27.8041 1.68955 29.2942C2.34721 30.5499 3.3795 31.5737 4.64555 32.226C6.14794 33 8.12174 33 12.0693 33H23.0216C26.9692 33 28.943 33 30.4454 32.226C31.7115 31.5737 32.7438 30.5499 33.4014 29.2942C34.1819 27.8041 34.1819 25.8465 34.1819 21.9312V11.0688C34.1819 7.1535 34.1819 5.19588 33.4014 3.7058C32.7438 2.45013 31.7115 1.4263 30.4454 0.774033C28.943 0 26.9692 0 23.0216 0H12.0693C8.12174 0 6.14794 0 4.64555 0.774033C3.3795 1.4263 2.34721 2.45013 1.68955 3.7058ZM8.37733 10.2483C9.97144 10.2483 11.2637 8.96659 11.2637 7.38554C11.2637 5.80449 9.97144 4.5228 8.37733 4.5228C6.78321 4.5228 5.49092 5.80449 5.49092 7.38554C5.49092 8.96659 6.78321 10.2483 8.37733 10.2483ZM13.9072 12.3639H18.6909V14.5374C18.6909 14.5374 19.989 11.9624 23.521 11.9624C26.6717 11.9624 29.2817 13.5018 29.2817 18.194V28.0885H24.3245V19.393C24.3245 16.625 22.8345 16.3206 21.6991 16.3206C19.3429 16.3206 18.9395 18.3363 18.9395 19.754V28.0885H13.9072V12.3639ZM10.8935 12.3639H5.86118V28.0885H10.8935V12.3639Z" fill="black"/>
</svg>
