<svg width="42" height="38" viewBox="0 0 42 38" fill="none" xmlns="http://www.w3.org/2000/svg">
<path d="M22.6254 30.9024C29.2064 30.9024 34.5413 25.5728 34.5413 18.9984C34.5413 12.4239 29.2064 7.0943 22.6254 7.0943C16.0444 7.0943 10.7095 12.4239 10.7095 18.9984C10.7095 25.5728 16.0444 30.9024 22.6254 30.9024Z" fill="#5CB547"/>
<path d="M26.1012 14.9816L20.7568 20.6806L18.6893 18.6327C18.443 18.3908 18.1106 18.2564 17.7653 18.2591C17.4199 18.2619 17.0897 18.4015 16.8473 18.6473C16.7259 18.7685 16.6296 18.9124 16.5639 19.0707C16.4982 19.2291 16.4644 19.3989 16.4644 19.5703C16.4644 19.7418 16.4982 19.9115 16.5639 20.0699C16.6296 20.2283 16.7259 20.3722 16.8473 20.4933L20.83 24.3931L28.0077 16.7662C28.2439 16.5135 28.3702 16.1775 28.3587 15.8319C28.3471 15.4863 28.1988 15.1595 27.9462 14.9231C27.8213 14.8057 27.6745 14.714 27.5141 14.6534C27.3537 14.5927 27.1829 14.5643 27.0115 14.5698C26.8401 14.5752 26.6715 14.6144 26.5153 14.685C26.3591 14.7557 26.2184 14.8565 26.1012 14.9816Z" fill="white"/>
</svg>
