<svg width="34" height="33" viewBox="0 0 34 33" fill="none" xmlns="http://www.w3.org/2000/svg">
<path fill-rule="evenodd" clip-rule="evenodd" d="M1.50772 3.7058C0.727295 5.19588 0.727295 7.1535 0.727295 11.0688V21.9312C0.727295 25.8465 0.727295 27.8041 1.50772 29.2942C2.16538 30.5499 3.19767 31.5737 4.46372 32.226C5.96611 33 7.93992 33 11.8875 33H22.8398C26.7874 33 28.7612 33 30.2636 32.226C31.5297 31.5737 32.5619 30.5499 33.2196 29.2942C34 27.8041 34 25.8465 34 21.9312V11.0688C34 7.1535 34 5.19588 33.2196 3.7058C32.5619 2.45013 31.5297 1.4263 30.2636 0.774033C28.7612 0 26.7874 0 22.8398 0H11.8875C7.93992 0 5.96611 0 4.46372 0.774033C3.19767 1.4263 2.16538 2.45013 1.50772 3.7058ZM26.6096 13.0979C26.6096 12.8918 26.6069 12.6858 26.5989 12.4796C27.4595 11.8145 28.2046 10.9808 28.7966 10.0345C28.0076 10.4093 27.1568 10.662 26.2648 10.7745C27.1765 10.1936 27.8742 9.26626 28.2046 8.16073C27.352 8.70413 26.4099 9.09759 25.4042 9.30371C24.6008 8.38556 23.4563 7.81398 22.189 7.81398C19.7548 7.81398 17.7819 9.93138 17.7819 12.5453C17.7819 12.9107 17.8204 13.276 17.8956 13.6226C14.2336 13.4259 10.9853 11.5427 8.81266 8.67584C8.43115 9.3785 8.21442 10.1936 8.21442 11.0556C8.21442 12.6951 8.99268 14.1472 10.1766 14.9998C9.45391 14.9717 8.77328 14.7563 8.17861 14.4097V14.466C8.17861 16.7613 9.69839 18.6725 11.7161 19.1035C11.3436 19.2159 10.9549 19.2721 10.5546 19.2721C10.2707 19.2721 9.99306 19.2439 9.72349 19.1877C10.285 21.0614 11.9132 22.4386 13.8414 22.4668C12.3332 23.7409 10.4319 24.5 8.36758 24.5C8.01203 24.5 7.66186 24.4718 7.31706 24.4343C9.26763 25.774 11.5827 26.5611 14.0724 26.5611C22.1774 26.5611 26.6096 19.3469 26.6096 13.0979Z" fill="black"/>
</svg>
