<svg width="35" height="33" viewBox="0 0 35 33" fill="none" xmlns="http://www.w3.org/2000/svg">
<path fill-rule="evenodd" clip-rule="evenodd" d="M1.59861 3.7058C0.818176 5.19588 0.818176 7.1535 0.818176 11.0688V21.9312C0.818176 25.8465 0.818176 27.8041 1.59861 29.2942C2.25627 30.5499 3.28855 31.5737 4.5546 32.226C6.05699 33 8.0308 33 11.9784 33H22.9307C26.8783 33 28.8521 33 30.3545 32.226C31.6205 31.5737 32.6528 30.5499 33.3105 29.2942C34.0909 27.8041 34.0909 25.8465 34.0909 21.9312V11.0688C34.0909 7.1535 34.0909 5.19588 33.3105 3.7058C32.6528 2.45013 31.6205 1.4263 30.3545 0.774033C28.8521 0 26.8783 0 22.9307 0H11.9784C8.0308 0 6.05699 0 4.5546 0.774033C3.28855 1.4263 2.25627 2.45013 1.59861 3.7058ZM29.4178 10.274C29.13 9.21385 28.2873 8.37798 27.2184 8.09256C25.2656 7.5625 17.4545 7.5625 17.4545 7.5625C17.4545 7.5625 9.64338 7.5625 7.6906 8.07218C6.64227 8.3576 5.77893 9.21385 5.49116 10.274C4.97727 12.2108 4.97727 16.227 4.97727 16.227C4.97727 16.227 4.97727 20.2636 5.49116 22.18C5.77893 23.2402 6.62171 24.076 7.6906 24.3614C9.66393 24.8915 17.4545 24.8915 17.4545 24.8915C17.4545 24.8915 25.2656 24.8915 27.2184 24.3818C28.2873 24.0964 29.13 23.2605 29.4178 22.2004C29.9317 20.2636 29.9317 16.2474 29.9317 16.2474C29.9317 16.2474 29.9523 12.2108 29.4178 10.274ZM14.9672 19.7959L21.4628 16.0854L14.9672 12.375V19.7959Z" fill="black"/>
</svg>
